<?xml version="1.0" encoding="utf-8"?>
<!-- Generator: Adobe Illustrator 27.6.1, SVG Export Plug-In . SVG Version: 6.00 Build 0)  -->
<svg version="1.1" id="Layer_1" xmlns="http://www.w3.org/2000/svg" xmlns:xlink="http://www.w3.org/1999/xlink" x="0px" y="0px"
	 viewBox="0 0 561.6 288" style="enable-background:new 0 0 561.6 288;" xml:space="preserve">
<style type="text/css">
	.st0{fill:#FFFFFF;}
	.st1{clip-path:url(#SVGID_00000142859318606753357660000012353760649785610684_);}
</style>
<rect x="0" y="0" class="st0" width="561.6" height="288"/>
<g>
	<defs>
		<rect id="SVGID_1_" x="0" y="0" width="561.6" height="288"/>
	</defs>
	<clipPath id="SVGID_00000104707713547425299000000015397702736547570872_">
		<use xlink:href="#SVGID_1_"  style="overflow:visible;"/>
	</clipPath>
	<g style="clip-path:url(#SVGID_00000104707713547425299000000015397702736547570872_);">
		<path d="M820.92,158.26v-15.58h-9.57v-7.16c2.33-0.11,4.67-0.23,7.45-0.38V128h2.11V-31.85H-16.83V142.9h7.54
			c0,2.72,0,5.19,0,7.66h7.8v7.47h7.39v-7.24h7.72v7.24h15.25v-14.85h15.16v7.24h15.3v7.34h22.76v-14.62h15.19v7.29h7.42v-15.03
			h-7.31v-7.38h15.03v22.41h7.48v-7.6h7.6v-14.84h7.72v14.83h7.72v15.05h14.83c0.13-2.5,0.25-4.81,0.37-7.09h7.64v7.07h7.47v-7.29
			h7.42c0,2.43,0,4.86,0,7.2h15.43v-6.99h15.23v14.69h7.5v-15.04h7.45c0.08-2.54,0.16-5.09,0.25-7.64h15.07v7.64h7.67v15.19h7.39
			v-15.3h15.37v-14.79h7.61v7.3h7.42v-7.59h15.2V128h7.72v7.24h7.71v7.47h7.25c0.13-2.48,0.25-4.79,0.37-7.12h7.58v15.03h7.24
			c0.14,2.57,0.26,4.88,0.41,7.6h7.45v7.41h7.72v-7.32h14.85c0.12,2.48,0.23,4.78,0.34,7.14h30.34v-22.6h7.41v-7.25h15.32v14.85
			h38.05v-7.21h14.88v14.69c-2.49,0.14-4.8,0.26-7.11,0.39v7.33h14.83v-30.06h7.81v15.01h7.4c0,4.94,0,9.87,0,14.86h7.82v-7.4h7.37
			v-14.82h7.78v7.05h15.21v-7.05h30.51v14.65h7.46v-7.43h7.42v-7.68h-7.45v-7.38c4.97,0,9.94,0,15.34,0v7.68h22.67v14.99h7.45v-7.26
			h22.63v7.13h-7.31v7.73h22.68v-22.63h7.51v-7.37h7.81v14.81h7.74v-7.31h7.49v7.31h7.43v-14.81h15.38v22.24h7.61v-14.63h14.86v14.7
			c-2.51,0.12-4.81,0.24-7.08,0.35v7.08h15.06v-7.36h7.51v-7.42c2.48-0.04,4.97-0.09,7.45-0.13v-7.71h7.78v-7.18h7.61v7.56h7.59
			v14.81c2.58,0.14,4.89,0.26,7.6,0.41v7.31h7.41v-7.74h7.83v-7.11h15.25v7.48H820.92z M20.94,135.08h-7.22v7.64H6.11v-7.22H-8.94
			v-7.55h29.87V135.08z M51.52,135.26h-7.25v-7.27h7.25V135.26z M59.09,142.62h-7.46v-7.24c2.49,0,4.97,0,7.46,0
			C59.09,137.7,59.09,140.02,59.09,142.62z M66.48,135.26h-7.27v-7.25h7.27V135.26z M81.76,127.4h-7.13v-7.09h7.13V127.4z
			 M165.5,135.26h-7.25v-7.27h7.25V135.26z M172.85,142.63h-7.23v-7.26c2.31,0,4.63,0,7.23,0V142.63z M188.06,150.46
			c-2.43,0-4.85,0-7.27,0v-14.84h7.27V150.46z M188.66,127.51v-7.13h14.67v7.13H188.66z M226.42,142.67
			c-10.01-0.01-20.02-0.01-30.26-0.01v-7.03h30.26V142.67z M256.47,142.83h-7.01v-14.82h7.01V142.83z M286.89,119.92h-7.07v-7.14
			h7.07V119.92z M355.3,150.2h-7.48v-7.18h-7.2v-7.45h14.68V150.2z M355.36,127.44h-7.22v-7h7.22V127.44z M370.48,150.31h-7.06
			v-14.83h7.06V150.31z M385.86,150.2h-7.27v-7.25h7.27V150.2z M393.44,142.83h-7.46c0-2.33,0-4.66,0-7.45h7.46
			C393.44,137.71,393.44,140.04,393.44,142.83z M400.83,135.26h-7.27v-7.25h7.27V135.26z M438.8,142.72h-7.09v-7.09h7.09V142.72z
			 M453.99,142.64h-7.06v-7.14h7.06V142.64z M476.81,134.96h-7.24v-6.94h7.24V134.96z M507.21,150.46c-2.43,0-4.85,0-7.27,0v-7.25
			h7.27V150.46z M545.14,135.23h-6.94v-7.24h6.94V135.23z M560.99,135.25v-7.27h14.84c0,2.43,0,4.85,0,7.27H560.99z M606.12,135.04
			h-7.22v-7h7.22V135.04z M636.6,142.62h-14.85v-7.24h14.85C636.6,137.7,636.6,140.02,636.6,142.62z M643.99,135.26h-7.27v-7.25
			h7.27V135.26z M682.18,127.64c-2.31,0-4.63,0-7.23,0v-7.26h7.23V127.64z M689.56,135.03h-7.25v-7.27h7.25V135.03z M743.35,150.45
			v-7.27h7.25c0,2.43,0,4.85,0,7.27H743.35z M788.41,127.51h-7.06v-14.83h7.06V127.51z M803.77,142.79h-7.32
			c-0.14,2.72-0.26,5.03-0.39,7.51h-7.12v-14.93h14.83C803.77,137.71,803.77,140.04,803.77,142.79z M811.25,135.41
			c-2.45-0.05-4.91-0.1-7.36-0.15v-7.24h7.36V135.41z"/>
		<path d="M-16.83,150.5c2.55-0.02,5.11-0.04,7.66-0.06c0,2.36,0,4.73,0,7.66c-2.73,0-5.19,0-7.66,0
			C-16.83,155.57-16.83,153.04-16.83,150.5z"/>
		<path d="M302.26,142.85c0,2.57,0,5.14,0,7.71l0.12-0.12c-2.48,0-4.96,0-7.72,0c0,2.97,0,5.34,0,7.72l0.12-0.12
			c-2.37,0-4.73,0-7.54,0c0,5.11,0,9.94,0,15.01c-2.72,0-5.01,0-7.59,0c0-2.33,0-4.52,0-7.16c-2.58,0-4.87,0-7.44,0
			c0-2.73,0-5.02,0-7.6c2.34-0.12,4.65-0.24,7.22-0.38c0-2.41,0-4.61,0-7.25c2.58,0,4.87,0,7.76,0c0-2.89,0-5.36,0-7.83l-0.12,0.12
			c5.11,0,10.21,0,15.32,0L302.26,142.85z"/>
		<path d="M317.59,173.35c0-4.9,0-9.79,0-15.31c-5.32,0-10.32,0-15.32,0l0.12,0.12c0-2.57,0-5.14,0-7.72l-0.12,0.12
			c7.43,0,14.87,0,22.76,0c0,5.02,0,9.86,0,14.99c2.65,0,4.85,0,7.37,0c0,2.59,0,4.88,0,7.68c-4.9,0-9.91,0-14.92,0L317.59,173.35z"
			/>
		<path d="M127.48,150.45c0,4.89,0,9.77,0,14.96c-4.96,0-9.78,0-15.07,0c0-2.43,0-4.89,0-7.36l-0.12,0.12c2.48,0,4.96,0,7.72,0
			c0-2.97,0-5.34,0-7.72l-0.12,0.12c2.57,0,5.14,0,7.72,0L127.48,150.45z"/>
		<path d="M423.84,150.44c0,4.9,0,9.8,0,14.98c-5.03,0-9.86,0-14.92,0c0-2.27,0-4.47,0-7.12c2.22,0,4.52,0,7.44,0
			c0-2.9,0-5.38,0-7.86l-0.12,0.12c2.57,0,5.14,0,7.72,0L423.84,150.44z"/>
		<path d="M583.4,150.55c7.41,0,14.82,0,22.55,0c0,2.41,0,4.7,0,7.27c-7.26,0-14.6,0-22.43,0c0-2.46,0-4.93,0-7.39
			C583.52,150.43,583.4,150.55,583.4,150.55z"/>
		<path d="M674.6,150.44c0,2.36,0,4.72,0,7.5c2.54,0,4.84,0,7.39,0c0,2.7,0,4.99,0,7.69c-5.03,0-10.01,0-14.99,0l0.12,0.12
			c0-5.01,0-10.02,0-15.2c2.85,0,5.23,0,7.6,0L674.6,150.44z"/>
		<path d="M454.49,165.65c-2.95,0-5.15,0-7.57,0c0-2.49,0-4.7,0-7.23c4.74,0,9.57,0,14.69,0c0,4.77,0,9.6,0,14.65
			c-2.28,0-4.47,0-7.13,0C454.49,170.85,454.49,168.55,454.49,165.65z"/>
		<path d="M735.4,180.7c0,2.95,0,5.15,0,7.57c-2.49,0-4.7,0-7.22,0c0-4.74,0-9.57,0-14.69c4.77,0,9.6,0,14.65,0
			c0,2.28,0,4.47,0,7.13C740.6,180.7,738.3,180.7,735.4,180.7z"/>
		<path d="M241.47,150.44c0,2.37,0,4.73,0,7.38c-4.97,0-9.79,0-15.08,0c0-2.45,0-4.92,0-7.38c0,0-0.12,0.12-0.12,0.12
			c5.11,0,10.21,0,15.32,0L241.47,150.44z"/>
		<path d="M104.52,157.9c0,2.47,0,4.93,0,7.58c-4.98,0-9.79,0-14.78,0c0-2.41,0-4.59,0-7.46c4.97,0,9.94,0,14.91,0
			C104.66,158.03,104.52,157.9,104.52,157.9z"/>
		<path d="M515.01,158.15c2.37,0,4.73,0,7.38,0c0,4.95,0,9.77,0,14.87c-2.25,0-4.53,0-7.26,0c0-5.01,0-10,0-14.99
			C515.13,158.03,515.01,158.15,515.01,158.15z"/>
		<path d="M74.16,165.94c0,4.88,0,9.6,0,14.64c-2.27,0-4.56,0-7.13,0c0-4.75,0-9.57,0-14.64C69.38,165.94,71.67,165.94,74.16,165.94
			z"/>
		<path d="M150.42,172.97c0-2.43,0-4.52,0-6.95c4.88,0,9.7,0,14.83,0c0,2.18,0,4.47,0,6.95
			C160.32,172.97,155.4,172.97,150.42,172.97z"/>
		<path d="M256.65,165.75c2.36,0,4.73,0,7.38,0c0,4.95,0,9.77,0,14.87c-2.25,0-4.53,0-7.26,0c0-5.01,0-10,0-14.99
			C256.77,165.63,256.65,165.75,256.65,165.75z"/>
		<path d="M659.53,180.94c0-5.1-0.01-10.21-0.01-15.31c0,0-0.12,0.12-0.12,0.12c2.57,0,5.14,0,7.72,0l-0.12-0.12
			c0,4.9,0,9.8,0,15.19c-2.65,0-5.12,0-7.59,0L659.53,180.94z"/>
		<path d="M309.86,135.24c0,2.37,0,4.75,0,7.61c-2.65,0-5.13,0-7.61,0l0.12,0.12c0-2.57,0-5.14,0-7.72l-0.12,0.12
			c2.57,0,5.14,0,7.72,0L309.86,135.24z"/>
		<path d="M135.09,142.84c0,2.37,0,4.75,0,7.61c-2.65,0-5.13,0-7.61,0l0.12,0.12c0-2.57,0-5.14,0-7.72l-0.12,0.12
			c2.57,0,5.14,0,7.72,0L135.09,142.84z"/>
		<path d="M416.37,150.45c-2.37,0-4.75,0-7.61,0c0-2.65,0-5.13,0-7.61l-0.12,0.12c2.48,0,4.95,0,7.6,0c0,2.86,0,5.23,0,7.6
			L416.37,150.45z"/>
		<path d="M43.91,150.43c0,2.36,0,4.72,0,7.37c-2.42,0-4.71,0-7.27,0c0-2.23,0-4.51,0-7.25c2.47,0,4.93,0,7.39,0
			C44.03,150.55,43.91,150.43,43.91,150.43z"/>
		<path d="M112.42,158.05c-2.63-0.04-5.26-0.09-7.89-0.14c-0.01,0,0.13,0.12,0.13,0.11c0.05-2.53,0.1-5.06,0.16-7.58
			c0,0-0.12,0.12-0.12,0.12c2.57,0,5.14,0,7.72,0l-0.12-0.12c0,2.57,0,5.14,0,7.72L112.42,158.05z"/>
		<path d="M553.29,150.67c2.44,0,4.63,0,7.11,0c0,2.35,0,4.64,0,7.18c-2.31,0-4.6,0-7.11,0
			C553.29,155.53,553.29,153.34,553.29,150.67z"/>
		<path d="M697.38,150.55c2.36,0,4.73,0,7.38,0c0,2.44,0,4.72,0,7.47c-2.43,0-4.89,0-7.36,0l0.12,0.12
			c-0.01-2.57-0.02-5.14-0.02-7.71C697.5,150.43,697.38,150.55,697.38,150.55z"/>
		<path d="M758.17,150.55c2.36,0,4.72,0,7.37,0c0,2.42,0,4.7,0,7.27c-2.22,0-4.51,0-7.25,0c0-2.47,0-4.93,0-7.39
			C758.29,150.44,758.17,150.55,758.17,150.55z"/>
		<path d="M13.51,158.04c0,2.37,0,4.74,0,7.59c-2.64,0-5.12,0-7.59,0l0.12,0.12c0-2.57-0.01-5.14-0.01-7.71c0,0-0.12,0.12-0.12,0.12
			c2.57,0,5.14,0,7.72,0L13.51,158.04z"/>
		<path d="M302.26,158.04c0,2.36,0,4.72,0,7.37c-2.44,0-4.73,0-7.48,0c0-2.44,0-4.91,0-7.37l-0.12,0.12c2.57,0,5.14,0,7.72,0
			L302.26,158.04z"/>
		<path d="M545.31,158.31c0,2.44,0,4.63,0,7.11c-2.35,0-4.64,0-7.18,0c0-2.31,0-4.6,0-7.11
			C540.45,158.31,542.64,158.31,545.31,158.31z"/>
		<path d="M629.12,165.64c-2.37,0-4.74,0-7.6,0c0-2.64,0-5.12,0-7.6l-0.12,0.12c2.48,0,4.95,0,7.6,0c0,2.86,0,5.23,0,7.6
			L629.12,165.64z"/>
		<path d="M697.41,158.03c0,2.36,0,4.72,0,7.37c-2.42,0-4.7,0-7.27,0c0-2.23,0-4.51,0-7.25c2.47,0,4.93,0,7.39,0
			C697.52,158.15,697.41,158.03,697.41,158.03z"/>
		<path d="M5.92,165.63c0,2.36,0,4.72,0,7.37c-2.42,0-4.71,0-7.27,0c0-2.23,0-4.51,0-7.25c2.47,0,4.93,0,7.39,0
			C6.04,165.75,5.92,165.63,5.92,165.63z"/>
		<path d="M347.86,165.63c0,2.36,0,4.72,0,7.37c-2.42,0-4.7,0-7.27,0c0-2.23,0-4.51,0-7.25c2.47,0,4.93,0,7.39,0
			C347.98,165.75,347.86,165.63,347.86,165.63z"/>
		<path d="M484.61,165.75c2.36,0,4.72,0,7.37,0c0,2.42,0,4.7,0,7.27c-2.22,0-4.51,0-7.25,0c0-2.47,0-4.93,0-7.39
			C484.73,165.63,484.61,165.75,484.61,165.75z"/>
		<path d="M583.14,173.15c-2.36,0-4.55,0-7,0c0-2.41,0-4.7,0-7.22c2.27,0,4.47,0,7,0C583.14,168.11,583.14,170.4,583.14,173.15z"/>
		<path d="M636.61,165.64c0,2.36,0,4.73,0,7.37c-2.44,0-4.73,0-7.49,0c0-2.44,0-4.91,0-7.37l-0.12,0.12c2.57,0,5.14,0,7.72,0
			L636.61,165.64z"/>
		<path d="M720.02,173.11c-2.37,0-4.57,0-7.06,0c0-2.28,0-4.57,0-7.14c2.25,0,4.54,0,7.06,0
			C720.02,168.22,720.02,170.42,720.02,173.11z"/>
		<path d="M796.16,165.75c2.36,0,4.72,0,7.37,0c0,2.42,0,4.7,0,7.27c-2.22,0-4.51,0-7.25,0c0-2.47,0-4.93,0-7.39
			C796.28,165.63,796.16,165.75,796.16,165.75z"/>
		<path d="M226.16,173.51c0,2.44,0,4.63,0,7.11c-2.35,0-4.64,0-7.18,0c0-2.31,0-4.6,0-7.11
			C221.3,173.51,223.49,173.51,226.16,173.51z"/>
		<path d="M317.47,173.23c0,2.36,0,4.72,0,7.37c-2.42,0-4.7,0-7.27,0c0-2.23,0-4.51,0-7.25c2.47,0,4.93,0,7.39,0
			C317.59,173.35,317.47,173.23,317.47,173.23z"/>
		<path d="M537.61,180.69c-2.55,0-4.75,0-7.13,0c0-2.39,0-4.58,0-7.09c2.27,0,4.56,0,7.13,0
			C537.61,175.84,537.61,178.13,537.61,180.69z"/>
		<path d="M96.93,188.31c-2.38,0-4.57,0-7.07,0c0-2.29,0-4.58,0-7.14c2.25,0,4.54,0,7.07,0C96.93,183.42,96.93,185.62,96.93,188.31z
			"/>
		<path d="M112.2,181.24c0,2.36,0,4.55,0,7c-2.41,0-4.7,0-7.22,0c0-2.27,0-4.46,0-7C107.16,181.24,109.45,181.24,112.2,181.24z"/>
		<path d="M203.31,188.31c-2.38,0-4.57,0-7.07,0c0-2.29,0-4.58,0-7.14c2.25,0,4.54,0,7.07,0
			C203.31,183.42,203.31,185.62,203.31,188.31z"/>
		<path d="M241.3,188.31c-2.38,0-4.57,0-7.07,0c0-2.28,0-4.57,0-7.14c2.25,0,4.54,0,7.07,0C241.3,183.42,241.3,185.62,241.3,188.31z
			"/>
		<path d="M286.87,188.42c-2.51,0-4.61,0-7.02,0c0-2.36,0-4.65,0-7.23c2.18,0,4.47,0,7.02,0
			C286.87,183.49,286.87,185.78,286.87,188.42z"/>
		<path d="M393.3,188.33c-2.44,0-4.63,0-7.11,0c0-2.35,0-4.64,0-7.18c2.31,0,4.6,0,7.11,0C393.3,183.47,393.3,185.66,393.3,188.33z"
			/>
		<path d="M553.39,181.06c2.42,0,4.61,0,7.04,0c0,2.45,0,4.74,0,7.23c-2.34,0-4.53,0-7.04,0
			C553.39,186.04,553.39,183.75,553.39,181.06z"/>
		<path d="M606.32,188.43c-2.35,0-4.71,0-7.35,0c0-2.41,0-4.69,0-7.25c2.23,0,4.51,0,7.23,0c0,2.46,0,4.92,0,7.37L606.32,188.43z"/>
		<path d="M659.41,180.82c0,2.36,0,4.72,0,7.37c-2.42,0-4.7,0-7.27,0c0-2.23,0-4.51,0-7.25c2.47,0,4.93,0,7.39,0
			C659.53,180.94,659.41,180.82,659.41,180.82z"/>
		<path d="M719.91,188.35c-2.36,0-4.55,0-7,0c0-2.41,0-4.7,0-7.22c2.27,0,4.47,0,7,0C719.91,183.31,719.91,185.6,719.91,188.35z"/>
		<path d="M780.73,188.34c-2.42,0-4.61,0-7.04,0c0-2.45,0-4.74,0-7.23c2.34,0,4.53,0,7.04,0
			C780.73,183.35,780.73,185.64,780.73,188.34z"/>
		<path d="M29.02,188.57c2.51,0,4.61,0,7.02,0c0,2.36,0,4.65,0,7.23c-2.18,0-4.47,0-7.02,0C29.02,193.51,29.02,191.22,29.02,188.57z
			"/>
		<path d="M583.68,188.67c2.44,0,4.63,0,7.11,0c0,2.35,0,4.64,0,7.18c-2.31,0-4.6,0-7.11,0
			C583.68,193.53,583.68,191.34,583.68,188.67z"/>
		<path d="M606.2,188.55c2.36,0,4.72,0,7.37,0c0,2.42,0,4.7,0,7.27c-2.23,0-4.51,0-7.25,0c0-2.47,0-4.93,0-7.39
			C606.32,188.43,606.2,188.55,606.2,188.55z"/>
		<path d="M818.81,195.9c-2.38,0-4.57,0-7.07,0c0-2.29,0-4.58,0-7.14c2.25,0,4.54,0,7.07,0
			C818.81,191.02,818.81,193.22,818.81,195.9z"/>
		<path d="M507.8,196.26c2.42,0,4.61,0,7.04,0c0,2.45,0,4.74,0,7.23c-2.34,0-4.53,0-7.04,0C507.8,201.24,507.8,198.95,507.8,196.26z
			"/>
		<path d="M530.2,196.44c0,2.44,0,4.53,0,6.94c-2.36,0-4.65,0-7.24,0c0-2.2,0-4.49,0-6.94C525.39,196.44,527.78,196.44,530.2,196.44
			z"/>
		<path d="M-8.93,203.88c2.49,0,4.68,0,7.09,0c0,2.36,0,4.56,0,7.09c-2.2,0-4.49,0-7.09,0C-8.93,208.8-8.93,206.51-8.93,203.88z"/>
		<path d="M286.94,203.99c0,2.49,0,4.68,0,7.09c-2.36,0-4.56,0-7.09,0c0-2.2,0-4.49,0-7.09
			C282.02,203.99,284.31,203.99,286.94,203.99z"/>
	</g>
</g>
</svg>
