<?xml version="1.0" encoding="utf-8"?>
<!-- Generator: Adobe Illustrator 27.7.0, SVG Export Plug-In . SVG Version: 6.00 Build 0)  -->
<svg version="1.1" id="Calque_1" xmlns="http://www.w3.org/2000/svg" xmlns:xlink="http://www.w3.org/1999/xlink" x="0px" y="0px"
	 viewBox="0 0 420.7 472.4" style="enable-background:new 0 0 420.7 472.4;" xml:space="preserve">
<style type="text/css">
	.st0{fill:#B12351;}
	.st1{fill:#1EAA63;}
	.st2{fill:#2C2D71;}
	.st3{fill:#2D1632;}
</style>
<polyline class="st0" points="102.7,472.4 102.7,372.5 102.1,372.5 102.1,472.4 "/>
<g>
	<rect x="23.1" y="373.5" class="st1" width="2.2" height="2.2"/>
</g>
<g>
	<rect x="121.9" y="112.3" class="st0" width="4.9" height="57.2"/>
</g>
<g>
	<rect y="166.8" class="st2" width="2.2" height="2.2"/>
</g>
<g>
	<rect x="329.3" y="216.6" class="st3" width="2.2" height="2.2"/>
</g>
<g>
	<rect x="54.4" y="202.5" class="st2" width="2.2" height="2.2"/>
</g>
<g>
	<rect x="261.7" y="120.1" class="st2" width="2.2" height="2.2"/>
</g>
<g>
	<rect x="383.7" y="106.3" class="st3" width="2.2" height="2.2"/>
</g>
<g>
	<rect x="285.7" y="234.5" class="st1" width="2.2" height="2.2"/>
</g>
<g>
	<rect x="382" y="324.7" class="st1" width="2.2" height="2.2"/>
</g>
<g>
	<rect x="263.5" y="43.7" class="st0" width="2.2" height="2.2"/>
</g>
<g>
	<rect x="237.1" y="255.6" class="st0" width="2.2" height="2.2"/>
</g>
<g>
	<rect x="254.8" y="269.3" class="st2" width="2.2" height="2.2"/>
</g>
<g>
	<rect x="15.3" y="80.4" class="st1" width="2.2" height="2.2"/>
</g>
<g>
	<rect x="107" y="70" class="st1" width="2.2" height="2.2"/>
</g>
<g>
	<rect x="355.8" y="286.7" class="st3" width="2.2" height="2.2"/>
</g>
<g>
	<rect x="102.4" y="99.7" class="st3" width="2.2" height="2.2"/>
</g>
<g>
	<rect x="241.6" y="343.1" class="st1" width="2.2" height="1.3"/>
</g>
<g>
	<rect x="261.1" y="353" class="st2" width="2.2" height="2.2"/>
</g>
<g>
	<rect x="222.7" y="119.4" class="st1" width="1" height="100"/>
</g>
<g>
	<rect x="121.5" y="256.6" class="st0" width="1.4" height="69.7"/>
</g>
<g>
	<rect x="132.5" y="173.6" class="st0" width="2" height="32.4"/>
</g>
<g>
	<rect x="70.8" y="175.8" class="st1" width="19.2" height="32.4"/>
</g>
<g>
	<rect x="138.1" y="300.3" class="st3" width="1.5" height="0.9"/>
</g>
<g>
	<rect x="288.8" y="374.3" class="st1" width="1.5" height="1.5"/>
</g>
<g>
	<rect x="41.1" y="267.7" class="st0" width="1.5" height="1.5"/>
</g>
<g>
	<rect x="175.8" y="73.2" class="st1" width="5" height="22.3"/>
</g>
<g>
	<rect x="280.5" y="197.8" class="st0" width="5" height="22.3"/>
</g>
<g>
	<rect x="249.6" y="104.3" class="st3" width="1.4" height="77.3"/>
</g>
<g>
	<rect x="288.7" y="107.8" class="st2" width="1.4" height="77.3"/>
</g>
<g>
	<rect x="293.4" y="370.5" class="st1" width="20.8" height="12.8"/>
</g>
<g>
	<rect x="379.5" y="7.2" class="st0" width="1.4" height="77.3"/>
</g>
<g>
	<rect x="355.2" y="363.5" class="st3" width="15.9" height="17.7"/>
</g>
<g>
	<rect x="145.8" y="53.9" class="st1" width="15.9" height="17.7"/>
</g>
<g>
	<rect x="355.8" y="84.1" class="st2" width="15.9" height="17.7"/>
</g>
<g>
	<rect x="151" y="154.8" class="st0" width="15.9" height="17.7"/>
</g>
<g>
	<rect x="148.3" y="166.5" class="st2" width="2.2" height="2.5"/>
</g>
<g>
	<rect x="212.6" y="43.7" class="st0" width="2.2" height="2.5"/>
</g>
<g>
	<rect x="234.5" y="154.2" class="st3" width="2.2" height="2.5"/>
</g>
<g>
	<rect x="364.2" y="137.4" class="st0" width="2.2" height="2.5"/>
</g>
<g>
	<rect x="189.4" y="66.9" class="st3" width="2.2" height="2.5"/>
</g>
<g>
	<rect x="182.9" y="325.7" class="st2" width="2.2" height="2.5"/>
</g>
<g>
	<rect x="51.8" y="41.2" class="st2" width="2.2" height="2.5"/>
</g>
<g>
	<rect x="162.2" class="st1" width="2.2" height="2.5"/>
</g>
<g>
	<rect x="84.4" y="296.3" class="st1" width="2.2" height="2.5"/>
</g>
<g>
	<rect x="42.8" y="54.8" class="st3" width="2.2" height="2.5"/>
</g>
<g>
	<rect x="279.2" y="119.4" class="st1" width="2.2" height="2.5"/>
</g>
<g>
	<rect x="167.7" y="77" class="st2" width="2.2" height="2.5"/>
</g>
<g>
	<rect x="161.1" y="397.9" class="st3" width="2.2" height="2.5"/>
</g>
<g>
	<rect x="242.2" y="138.4" class="st1" width="2.2" height="2.5"/>
</g>
<g>
	<rect x="147.6" y="292.4" class="st3" width="2.2" height="2.5"/>
</g>
<g>
	<rect x="101.3" y="270.3" class="st3" width="2.2" height="2.5"/>
</g>
<g>
	<rect x="327.5" y="171.5" class="st1" width="2.2" height="2.5"/>
</g>
<g>
	<rect x="285.6" y="37.3" class="st0" width="2.2" height="2.5"/>
</g>
<g>
	<rect x="87.9" y="337.1" class="st3" width="2.2" height="2.5"/>
</g>
<g>
	<rect x="134.5" y="404.6" class="st2" width="2.2" height="2.5"/>
</g>
<g>
	<rect x="348.6" y="154.3" class="st1" width="2.2" height="2.5"/>
</g>
<g>
	<rect x="193.8" y="322.1" class="st3" width="2.2" height="2.5"/>
</g>
<g>
	<rect x="181.8" y="103.3" class="st3" width="2.2" height="2.5"/>
</g>
<g>
	<rect x="86.7" y="193.8" class="st2" width="2.2" height="2.5"/>
</g>
<g>
	<rect x="183.9" y="280.4" class="st2" width="2.2" height="2.5"/>
</g>
<g>
	<rect x="310" y="290.4" class="st2" width="2.2" height="2.5"/>
</g>
<g>
	<rect x="235.8" y="166.9" class="st1" width="2.2" height="2.5"/>
</g>
<g>
	<rect x="122.7" y="229.8" class="st2" width="2.2" height="2.5"/>
</g>
<g>
	<rect x="41.2" y="143.5" class="st1" width="2.2" height="2.5"/>
</g>
<g>
	<rect x="247.2" y="257.5" class="st3" width="2.2" height="2.5"/>
</g>
<g>
	<rect x="314.9" y="120.5" class="st1" width="2.2" height="2.5"/>
</g>
<g>
	<rect x="418.5" y="52.9" class="st2" width="2.2" height="2.5"/>
</g>
<g>
	<rect x="227.7" y="114.5" class="st0" width="2.2" height="2.5"/>
</g>
<g>
	<rect x="405" y="112.9" class="st3" width="2.2" height="2.5"/>
</g>
<g>
	<rect x="112.2" y="350.5" class="st1" width="2.2" height="2.5"/>
</g>
<g>
	<rect x="17.8" y="56.3" class="st3" width="2.2" height="2.5"/>
</g>
<g>
	<rect x="398.4" y="132.7" class="st2" width="2.2" height="2.5"/>
</g>
<g>
	<rect x="357.9" y="256" class="st1" width="2" height="48.3"/>
</g>
<g>
	<rect x="274.4" y="247.7" class="st0" width="15.9" height="17.7"/>
</g>
</svg>
