<?xml version="1.0" encoding="UTF-8"?>
<svg xmlns="http://www.w3.org/2000/svg" xmlns:xlink="http://www.w3.org/1999/xlink" width="43px" height="40px" viewBox="0 0 43 40" version="1.1">
<g id="surface1">
<path style=" stroke:none;fill-rule:nonzero;fill:rgb(96.862745%,75.686275%,54.117647%);fill-opacity:1;" d="M 39.722656 23.308594 L 43.035156 23.308594 L 43.035156 26.632812 L 39.722656 26.632812 Z M 39.722656 23.308594 "/>
<path style=" stroke:none;fill-rule:nonzero;fill:rgb(96.862745%,75.686275%,54.117647%);fill-opacity:1;" d="M 39.722656 19.984375 L 43.035156 19.984375 L 43.035156 23.308594 L 39.722656 23.308594 Z M 39.722656 19.984375 "/>
<path style=" stroke:none;fill-rule:nonzero;fill:rgb(96.862745%,75.686275%,54.117647%);fill-opacity:1;" d="M 39.722656 16.65625 L 43.035156 16.65625 L 43.035156 19.984375 L 39.722656 19.984375 Z M 39.722656 16.65625 "/>
<path style=" stroke:none;fill-rule:nonzero;fill:rgb(96.862745%,75.686275%,54.117647%);fill-opacity:1;" d="M 39.722656 13.367188 L 43.035156 13.367188 L 43.035156 16.691406 L 39.722656 16.691406 Z M 39.722656 13.367188 "/>
<path style=" stroke:none;fill-rule:nonzero;fill:rgb(96.862745%,75.686275%,54.117647%);fill-opacity:1;" d="M 39.722656 10.042969 L 43.035156 10.042969 L 43.035156 13.367188 L 39.722656 13.367188 Z M 39.722656 10.042969 "/>
<path style=" stroke:none;fill-rule:nonzero;fill:rgb(96.862745%,75.686275%,54.117647%);fill-opacity:1;" d="M 39.722656 6.714844 L 43.035156 6.714844 L 43.035156 10.042969 L 39.722656 10.042969 Z M 39.722656 6.714844 "/>
<path style=" stroke:none;fill-rule:nonzero;fill:rgb(96.862745%,75.686275%,54.117647%);fill-opacity:1;" d="M 39.722656 3.390625 L 43.035156 3.390625 L 43.035156 6.714844 L 39.722656 6.714844 Z M 39.722656 3.390625 "/>
<path style=" stroke:none;fill-rule:nonzero;fill:rgb(96.862745%,75.686275%,54.117647%);fill-opacity:1;" d="M 36.410156 26.632812 L 39.722656 26.632812 L 39.722656 29.957031 L 36.410156 29.957031 Z M 36.410156 26.632812 "/>
<path style=" stroke:none;fill-rule:nonzero;fill:rgb(96.862745%,75.686275%,54.117647%);fill-opacity:1;" d="M 36.410156 23.308594 L 39.722656 23.308594 L 39.722656 26.632812 L 36.410156 26.632812 Z M 36.410156 23.308594 "/>
<path style=" stroke:none;fill-rule:nonzero;fill:rgb(96.862745%,75.686275%,54.117647%);fill-opacity:1;" d="M 36.410156 19.984375 L 39.722656 19.984375 L 39.722656 23.308594 L 36.410156 23.308594 Z M 36.410156 19.984375 "/>
<path style=" stroke:none;fill-rule:nonzero;fill:rgb(83.921569%,48.235294%,23.529412%);fill-opacity:1;" d="M 36.410156 16.65625 L 39.722656 16.65625 L 39.722656 19.984375 L 36.410156 19.984375 Z M 36.410156 16.65625 "/>
<path style=" stroke:none;fill-rule:nonzero;fill:rgb(83.921569%,48.235294%,23.529412%);fill-opacity:1;" d="M 36.410156 13.367188 L 39.722656 13.367188 L 39.722656 16.691406 L 36.410156 16.691406 Z M 36.410156 13.367188 "/>
<path style=" stroke:none;fill-rule:nonzero;fill:rgb(83.921569%,48.235294%,23.529412%);fill-opacity:1;" d="M 36.410156 10.042969 L 39.722656 10.042969 L 39.722656 13.367188 L 36.410156 13.367188 Z M 36.410156 10.042969 "/>
<path style=" stroke:none;fill-rule:nonzero;fill:rgb(83.921569%,48.235294%,23.529412%);fill-opacity:1;" d="M 36.410156 6.714844 L 39.722656 6.714844 L 39.722656 10.042969 L 36.410156 10.042969 Z M 36.410156 6.714844 "/>
<path style=" stroke:none;fill-rule:nonzero;fill:rgb(83.921569%,48.235294%,23.529412%);fill-opacity:1;" d="M 36.410156 3.390625 L 39.722656 3.390625 L 39.722656 6.714844 L 36.410156 6.714844 Z M 36.410156 3.390625 "/>
<path style=" stroke:none;fill-rule:nonzero;fill:rgb(83.921569%,48.235294%,23.529412%);fill-opacity:1;" d="M 36.410156 0.0664062 L 39.722656 0.0664062 L 39.722656 3.390625 L 36.410156 3.390625 Z M 36.410156 0.0664062 "/>
<path style=" stroke:none;fill-rule:nonzero;fill:rgb(96.862745%,75.686275%,54.117647%);fill-opacity:1;" d="M 33.09375 26.632812 L 36.410156 26.632812 L 36.410156 29.957031 L 33.09375 29.957031 Z M 33.09375 26.632812 "/>
<path style=" stroke:none;fill-rule:nonzero;fill:rgb(96.862745%,75.686275%,54.117647%);fill-opacity:1;" d="M 33.09375 23.308594 L 36.410156 23.308594 L 36.410156 26.632812 L 33.09375 26.632812 Z M 33.09375 23.308594 "/>
<path style=" stroke:none;fill-rule:nonzero;fill:rgb(83.921569%,48.235294%,23.529412%);fill-opacity:1;" d="M 33.09375 19.984375 L 36.410156 19.984375 L 36.410156 23.308594 L 33.09375 23.308594 Z M 33.09375 19.984375 "/>
<path style=" stroke:none;fill-rule:nonzero;fill:rgb(83.921569%,48.235294%,23.529412%);fill-opacity:1;" d="M 33.09375 16.65625 L 36.410156 16.65625 L 36.410156 19.984375 L 33.09375 19.984375 Z M 33.09375 16.65625 "/>
<path style=" stroke:none;fill-rule:nonzero;fill:rgb(83.921569%,48.235294%,23.529412%);fill-opacity:1;" d="M 33.09375 13.367188 L 36.410156 13.367188 L 36.410156 16.691406 L 33.09375 16.691406 Z M 33.09375 13.367188 "/>
<path style=" stroke:none;fill-rule:nonzero;fill:rgb(83.921569%,48.235294%,23.529412%);fill-opacity:1;" d="M 33.09375 10.042969 L 36.410156 10.042969 L 36.410156 13.367188 L 33.09375 13.367188 Z M 33.09375 10.042969 "/>
<path style=" stroke:none;fill-rule:nonzero;fill:rgb(83.921569%,48.235294%,23.529412%);fill-opacity:1;" d="M 33.09375 6.714844 L 36.410156 6.714844 L 36.410156 10.042969 L 33.09375 10.042969 Z M 33.09375 6.714844 "/>
<path style=" stroke:none;fill-rule:nonzero;fill:rgb(83.921569%,48.235294%,23.529412%);fill-opacity:1;" d="M 33.09375 3.390625 L 36.410156 3.390625 L 36.410156 6.714844 L 33.09375 6.714844 Z M 33.09375 3.390625 "/>
<path style=" stroke:none;fill-rule:nonzero;fill:rgb(83.921569%,48.235294%,23.529412%);fill-opacity:1;" d="M 33.09375 0.0664062 L 36.410156 0.0664062 L 36.410156 3.390625 L 33.09375 3.390625 Z M 33.09375 0.0664062 "/>
<path style=" stroke:none;fill-rule:nonzero;fill:rgb(96.862745%,75.686275%,54.117647%);fill-opacity:1;" d="M 29.78125 26.632812 L 33.09375 26.632812 L 33.09375 29.957031 L 29.78125 29.957031 Z M 29.78125 26.632812 "/>
<path style=" stroke:none;fill-rule:nonzero;fill:rgb(83.921569%,48.235294%,23.529412%);fill-opacity:1;" d="M 29.78125 23.308594 L 33.09375 23.308594 L 33.09375 26.632812 L 29.78125 26.632812 Z M 29.78125 23.308594 "/>
<path style=" stroke:none;fill-rule:nonzero;fill:rgb(83.921569%,48.235294%,23.529412%);fill-opacity:1;" d="M 29.78125 19.984375 L 33.09375 19.984375 L 33.09375 23.308594 L 29.78125 23.308594 Z M 29.78125 19.984375 "/>
<path style=" stroke:none;fill-rule:nonzero;fill:rgb(83.921569%,48.235294%,23.529412%);fill-opacity:1;" d="M 29.78125 16.65625 L 33.09375 16.65625 L 33.09375 19.984375 L 29.78125 19.984375 Z M 29.78125 16.65625 "/>
<path style=" stroke:none;fill-rule:nonzero;fill:rgb(90.588235%,33.72549%,32.941176%);fill-opacity:1;" d="M 29.78125 13.367188 L 33.09375 13.367188 L 33.09375 16.691406 L 29.78125 16.691406 Z M 29.78125 13.367188 "/>
<path style=" stroke:none;fill-rule:nonzero;fill:rgb(90.588235%,33.72549%,32.941176%);fill-opacity:1;" d="M 29.78125 10.042969 L 33.09375 10.042969 L 33.09375 13.367188 L 29.78125 13.367188 Z M 29.78125 10.042969 "/>
<path style=" stroke:none;fill-rule:nonzero;fill:rgb(83.921569%,48.235294%,23.529412%);fill-opacity:1;" d="M 29.78125 6.714844 L 33.09375 6.714844 L 33.09375 10.042969 L 29.78125 10.042969 Z M 29.78125 6.714844 "/>
<path style=" stroke:none;fill-rule:nonzero;fill:rgb(83.921569%,48.235294%,23.529412%);fill-opacity:1;" d="M 29.78125 3.390625 L 33.09375 3.390625 L 33.09375 6.714844 L 29.78125 6.714844 Z M 29.78125 3.390625 "/>
<path style=" stroke:none;fill-rule:nonzero;fill:rgb(83.921569%,48.235294%,23.529412%);fill-opacity:1;" d="M 29.78125 0.0664062 L 33.09375 0.0664062 L 33.09375 3.390625 L 29.78125 3.390625 Z M 29.78125 0.0664062 "/>
<path style=" stroke:none;fill-rule:nonzero;fill:rgb(96.862745%,75.686275%,54.117647%);fill-opacity:1;" d="M 26.46875 26.632812 L 29.78125 26.632812 L 29.78125 29.957031 L 26.46875 29.957031 Z M 26.46875 26.632812 "/>
<path style=" stroke:none;fill-rule:nonzero;fill:rgb(83.921569%,48.235294%,23.529412%);fill-opacity:1;" d="M 26.46875 23.308594 L 29.78125 23.308594 L 29.78125 26.632812 L 26.46875 26.632812 Z M 26.46875 23.308594 "/>
<path style=" stroke:none;fill-rule:nonzero;fill:rgb(83.921569%,48.235294%,23.529412%);fill-opacity:1;" d="M 26.46875 19.984375 L 29.78125 19.984375 L 29.78125 23.308594 L 26.46875 23.308594 Z M 26.46875 19.984375 "/>
<path style=" stroke:none;fill-rule:nonzero;fill:rgb(83.921569%,48.235294%,23.529412%);fill-opacity:1;" d="M 26.46875 16.65625 L 29.78125 16.65625 L 29.78125 19.984375 L 26.46875 19.984375 Z M 26.46875 16.65625 "/>
<path style=" stroke:none;fill-rule:nonzero;fill:rgb(90.588235%,33.72549%,32.941176%);fill-opacity:1;" d="M 26.46875 13.367188 L 29.78125 13.367188 L 29.78125 16.691406 L 26.46875 16.691406 Z M 26.46875 13.367188 "/>
<path style=" stroke:none;fill-rule:nonzero;fill:rgb(92.54902%,61.568627%,56.078431%);fill-opacity:1;" d="M 26.46875 10.042969 L 29.78125 10.042969 L 29.78125 13.367188 L 26.46875 13.367188 Z M 26.46875 10.042969 "/>
<path style=" stroke:none;fill-rule:nonzero;fill:rgb(83.921569%,48.235294%,23.529412%);fill-opacity:1;" d="M 26.46875 6.714844 L 29.78125 6.714844 L 29.78125 10.042969 L 26.46875 10.042969 Z M 26.46875 6.714844 "/>
<path style=" stroke:none;fill-rule:nonzero;fill:rgb(83.921569%,48.235294%,23.529412%);fill-opacity:1;" d="M 26.46875 3.390625 L 29.78125 3.390625 L 29.78125 6.714844 L 26.46875 6.714844 Z M 26.46875 3.390625 "/>
<path style=" stroke:none;fill-rule:nonzero;fill:rgb(83.921569%,48.235294%,23.529412%);fill-opacity:1;" d="M 26.46875 0.0664062 L 29.78125 0.0664062 L 29.78125 3.390625 L 26.46875 3.390625 Z M 26.46875 0.0664062 "/>
<path style=" stroke:none;fill-rule:nonzero;fill:rgb(96.862745%,75.686275%,54.117647%);fill-opacity:1;" d="M 23.15625 26.632812 L 26.46875 26.632812 L 26.46875 29.957031 L 23.15625 29.957031 Z M 23.15625 26.632812 "/>
<path style=" stroke:none;fill-rule:nonzero;fill:rgb(83.921569%,48.235294%,23.529412%);fill-opacity:1;" d="M 23.15625 23.308594 L 26.46875 23.308594 L 26.46875 26.632812 L 23.15625 26.632812 Z M 23.15625 23.308594 "/>
<path style=" stroke:none;fill-rule:nonzero;fill:rgb(83.921569%,48.235294%,23.529412%);fill-opacity:1;" d="M 23.15625 19.984375 L 26.46875 19.984375 L 26.46875 23.308594 L 23.15625 23.308594 Z M 23.15625 19.984375 "/>
<path style=" stroke:none;fill-rule:nonzero;fill:rgb(83.921569%,48.235294%,23.529412%);fill-opacity:1;" d="M 23.15625 16.65625 L 26.46875 16.65625 L 26.46875 19.984375 L 23.15625 19.984375 Z M 23.15625 16.65625 "/>
<path style=" stroke:none;fill-rule:nonzero;fill:rgb(83.921569%,48.235294%,23.529412%);fill-opacity:1;" d="M 23.15625 13.367188 L 26.46875 13.367188 L 26.46875 16.691406 L 23.15625 16.691406 Z M 23.15625 13.367188 "/>
<path style=" stroke:none;fill-rule:nonzero;fill:rgb(83.921569%,48.235294%,23.529412%);fill-opacity:1;" d="M 23.15625 10.042969 L 26.46875 10.042969 L 26.46875 13.367188 L 23.15625 13.367188 Z M 23.15625 10.042969 "/>
<path style=" stroke:none;fill-rule:nonzero;fill:rgb(83.921569%,48.235294%,23.529412%);fill-opacity:1;" d="M 23.15625 6.714844 L 26.46875 6.714844 L 26.46875 10.042969 L 23.15625 10.042969 Z M 23.15625 6.714844 "/>
<path style=" stroke:none;fill-rule:nonzero;fill:rgb(83.921569%,48.235294%,23.529412%);fill-opacity:1;" d="M 23.15625 3.390625 L 26.46875 3.390625 L 26.46875 6.714844 L 23.15625 6.714844 Z M 23.15625 3.390625 "/>
<path style=" stroke:none;fill-rule:nonzero;fill:rgb(83.921569%,48.235294%,23.529412%);fill-opacity:1;" d="M 23.15625 0.0664062 L 26.46875 0.0664062 L 26.46875 3.390625 L 23.15625 3.390625 Z M 23.15625 0.0664062 "/>
<path style=" stroke:none;fill-rule:nonzero;fill:rgb(96.862745%,75.686275%,54.117647%);fill-opacity:1;" d="M 19.84375 26.632812 L 23.15625 26.632812 L 23.15625 29.957031 L 19.84375 29.957031 Z M 19.84375 26.632812 "/>
<path style=" stroke:none;fill-rule:nonzero;fill:rgb(83.921569%,48.235294%,23.529412%);fill-opacity:1;" d="M 19.84375 23.308594 L 23.15625 23.308594 L 23.15625 26.632812 L 19.84375 26.632812 Z M 19.84375 23.308594 "/>
<path style=" stroke:none;fill-rule:nonzero;fill:rgb(83.921569%,48.235294%,23.529412%);fill-opacity:1;" d="M 19.84375 19.984375 L 23.15625 19.984375 L 23.15625 23.308594 L 19.84375 23.308594 Z M 19.84375 19.984375 "/>
<path style=" stroke:none;fill-rule:nonzero;fill:rgb(83.921569%,48.235294%,23.529412%);fill-opacity:1;" d="M 19.84375 16.65625 L 23.15625 16.65625 L 23.15625 19.984375 L 19.84375 19.984375 Z M 19.84375 16.65625 "/>
<path style=" stroke:none;fill-rule:nonzero;fill:rgb(90.588235%,33.72549%,32.941176%);fill-opacity:1;" d="M 19.84375 13.367188 L 23.15625 13.367188 L 23.15625 16.691406 L 19.84375 16.691406 Z M 19.84375 13.367188 "/>
<path style=" stroke:none;fill-rule:nonzero;fill:rgb(90.588235%,33.72549%,32.941176%);fill-opacity:1;" d="M 19.84375 10.042969 L 23.15625 10.042969 L 23.15625 13.367188 L 19.84375 13.367188 Z M 19.84375 10.042969 "/>
<path style=" stroke:none;fill-rule:nonzero;fill:rgb(83.921569%,48.235294%,23.529412%);fill-opacity:1;" d="M 19.84375 6.714844 L 23.15625 6.714844 L 23.15625 10.042969 L 19.84375 10.042969 Z M 19.84375 6.714844 "/>
<path style=" stroke:none;fill-rule:nonzero;fill:rgb(83.921569%,48.235294%,23.529412%);fill-opacity:1;" d="M 19.84375 3.390625 L 23.15625 3.390625 L 23.15625 6.714844 L 19.84375 6.714844 Z M 19.84375 3.390625 "/>
<path style=" stroke:none;fill-rule:nonzero;fill:rgb(83.921569%,48.235294%,23.529412%);fill-opacity:1;" d="M 19.84375 0.0664062 L 23.15625 0.0664062 L 23.15625 3.390625 L 19.84375 3.390625 Z M 19.84375 0.0664062 "/>
<path style=" stroke:none;fill-rule:nonzero;fill:rgb(96.862745%,75.686275%,54.117647%);fill-opacity:1;" d="M 16.53125 26.632812 L 19.84375 26.632812 L 19.84375 29.957031 L 16.53125 29.957031 Z M 16.53125 26.632812 "/>
<path style=" stroke:none;fill-rule:nonzero;fill:rgb(83.921569%,48.235294%,23.529412%);fill-opacity:1;" d="M 16.53125 23.308594 L 19.84375 23.308594 L 19.84375 26.632812 L 16.53125 26.632812 Z M 16.53125 23.308594 "/>
<path style=" stroke:none;fill-rule:nonzero;fill:rgb(83.921569%,48.235294%,23.529412%);fill-opacity:1;" d="M 16.53125 19.984375 L 19.84375 19.984375 L 19.84375 23.308594 L 16.53125 23.308594 Z M 16.53125 19.984375 "/>
<path style=" stroke:none;fill-rule:nonzero;fill:rgb(83.921569%,48.235294%,23.529412%);fill-opacity:1;" d="M 16.53125 16.65625 L 19.84375 16.65625 L 19.84375 19.984375 L 16.53125 19.984375 Z M 16.53125 16.65625 "/>
<path style=" stroke:none;fill-rule:nonzero;fill:rgb(90.588235%,33.72549%,32.941176%);fill-opacity:1;" d="M 16.53125 13.367188 L 19.84375 13.367188 L 19.84375 16.691406 L 16.53125 16.691406 Z M 16.53125 13.367188 "/>
<path style=" stroke:none;fill-rule:nonzero;fill:rgb(92.54902%,61.568627%,56.078431%);fill-opacity:1;" d="M 16.53125 10.042969 L 19.84375 10.042969 L 19.84375 13.367188 L 16.53125 13.367188 Z M 16.53125 10.042969 "/>
<path style=" stroke:none;fill-rule:nonzero;fill:rgb(83.921569%,48.235294%,23.529412%);fill-opacity:1;" d="M 16.53125 6.714844 L 19.84375 6.714844 L 19.84375 10.042969 L 16.53125 10.042969 Z M 16.53125 6.714844 "/>
<path style=" stroke:none;fill-rule:nonzero;fill:rgb(83.921569%,48.235294%,23.529412%);fill-opacity:1;" d="M 16.53125 3.390625 L 19.84375 3.390625 L 19.84375 6.714844 L 16.53125 6.714844 Z M 16.53125 3.390625 "/>
<path style=" stroke:none;fill-rule:nonzero;fill:rgb(83.921569%,48.235294%,23.529412%);fill-opacity:1;" d="M 16.53125 0.0664062 L 19.84375 0.0664062 L 19.84375 3.390625 L 16.53125 3.390625 Z M 16.53125 0.0664062 "/>
<path style=" stroke:none;fill-rule:nonzero;fill:rgb(83.921569%,48.235294%,23.529412%);fill-opacity:1;" d="M 13.253906 33.285156 L 16.566406 33.285156 L 16.566406 36.609375 L 13.253906 36.609375 Z M 13.253906 33.285156 "/>
<path style=" stroke:none;fill-rule:nonzero;fill:rgb(96.862745%,75.686275%,54.117647%);fill-opacity:1;" d="M 13.253906 29.957031 L 16.566406 29.957031 L 16.566406 33.285156 L 13.253906 33.285156 Z M 13.253906 29.957031 "/>
<path style=" stroke:none;fill-rule:nonzero;fill:rgb(96.862745%,75.686275%,54.117647%);fill-opacity:1;" d="M 13.253906 26.632812 L 16.566406 26.632812 L 16.566406 29.957031 L 13.253906 29.957031 Z M 13.253906 26.632812 "/>
<path style=" stroke:none;fill-rule:nonzero;fill:rgb(83.921569%,48.235294%,23.529412%);fill-opacity:1;" d="M 13.253906 23.308594 L 16.566406 23.308594 L 16.566406 26.632812 L 13.253906 26.632812 Z M 13.253906 23.308594 "/>
<path style=" stroke:none;fill-rule:nonzero;fill:rgb(83.921569%,48.235294%,23.529412%);fill-opacity:1;" d="M 13.253906 19.984375 L 16.566406 19.984375 L 16.566406 23.308594 L 13.253906 23.308594 Z M 13.253906 19.984375 "/>
<path style=" stroke:none;fill-rule:nonzero;fill:rgb(83.921569%,48.235294%,23.529412%);fill-opacity:1;" d="M 13.253906 16.65625 L 16.566406 16.65625 L 16.566406 19.984375 L 13.253906 19.984375 Z M 13.253906 16.65625 "/>
<path style=" stroke:none;fill-rule:nonzero;fill:rgb(83.921569%,48.235294%,23.529412%);fill-opacity:1;" d="M 13.253906 13.367188 L 16.566406 13.367188 L 16.566406 16.691406 L 13.253906 16.691406 Z M 13.253906 13.367188 "/>
<path style=" stroke:none;fill-rule:nonzero;fill:rgb(83.921569%,48.235294%,23.529412%);fill-opacity:1;" d="M 13.253906 10.042969 L 16.566406 10.042969 L 16.566406 13.367188 L 13.253906 13.367188 Z M 13.253906 10.042969 "/>
<path style=" stroke:none;fill-rule:nonzero;fill:rgb(83.921569%,48.235294%,23.529412%);fill-opacity:1;" d="M 13.253906 6.714844 L 16.566406 6.714844 L 16.566406 10.042969 L 13.253906 10.042969 Z M 13.253906 6.714844 "/>
<path style=" stroke:none;fill-rule:nonzero;fill:rgb(83.921569%,48.235294%,23.529412%);fill-opacity:1;" d="M 13.253906 3.390625 L 16.566406 3.390625 L 16.566406 6.714844 L 13.253906 6.714844 Z M 13.253906 3.390625 "/>
<path style=" stroke:none;fill-rule:nonzero;fill:rgb(83.921569%,48.235294%,23.529412%);fill-opacity:1;" d="M 13.253906 0.0664062 L 16.566406 0.0664062 L 16.566406 3.390625 L 13.253906 3.390625 Z M 13.253906 0.0664062 "/>
<path style=" stroke:none;fill-rule:nonzero;fill:rgb(83.921569%,48.235294%,23.529412%);fill-opacity:1;" d="M 9.9375 36.609375 L 13.253906 36.609375 L 13.253906 39.933594 L 9.9375 39.933594 Z M 9.9375 36.609375 "/>
<path style=" stroke:none;fill-rule:nonzero;fill:rgb(83.921569%,48.235294%,23.529412%);fill-opacity:1;" d="M 9.9375 33.285156 L 13.253906 33.285156 L 13.253906 36.609375 L 9.9375 36.609375 Z M 9.9375 33.285156 "/>
<path style=" stroke:none;fill-rule:nonzero;fill:rgb(96.862745%,75.686275%,54.117647%);fill-opacity:1;" d="M 9.9375 29.957031 L 13.253906 29.957031 L 13.253906 33.285156 L 9.9375 33.285156 Z M 9.9375 29.957031 "/>
<path style=" stroke:none;fill-rule:nonzero;fill:rgb(83.921569%,48.235294%,23.529412%);fill-opacity:1;" d="M 9.9375 26.632812 L 13.253906 26.632812 L 13.253906 29.957031 L 9.9375 29.957031 Z M 9.9375 26.632812 "/>
<path style=" stroke:none;fill-rule:nonzero;fill:rgb(83.921569%,48.235294%,23.529412%);fill-opacity:1;" d="M 9.9375 23.308594 L 13.253906 23.308594 L 13.253906 26.632812 L 9.9375 26.632812 Z M 9.9375 23.308594 "/>
<path style=" stroke:none;fill-rule:nonzero;fill:rgb(83.921569%,48.235294%,23.529412%);fill-opacity:1;" d="M 9.9375 19.984375 L 13.253906 19.984375 L 13.253906 23.308594 L 9.9375 23.308594 Z M 9.9375 19.984375 "/>
<path style=" stroke:none;fill-rule:nonzero;fill:rgb(83.921569%,48.235294%,23.529412%);fill-opacity:1;" d="M 9.9375 16.65625 L 13.253906 16.65625 L 13.253906 19.984375 L 9.9375 19.984375 Z M 9.9375 16.65625 "/>
<path style=" stroke:none;fill-rule:nonzero;fill:rgb(90.588235%,33.72549%,32.941176%);fill-opacity:1;" d="M 9.9375 13.367188 L 13.253906 13.367188 L 13.253906 16.691406 L 9.9375 16.691406 Z M 9.9375 13.367188 "/>
<path style=" stroke:none;fill-rule:nonzero;fill:rgb(90.588235%,33.72549%,32.941176%);fill-opacity:1;" d="M 9.9375 10.042969 L 13.253906 10.042969 L 13.253906 13.367188 L 9.9375 13.367188 Z M 9.9375 10.042969 "/>
<path style=" stroke:none;fill-rule:nonzero;fill:rgb(83.921569%,48.235294%,23.529412%);fill-opacity:1;" d="M 9.9375 6.714844 L 13.253906 6.714844 L 13.253906 10.042969 L 9.9375 10.042969 Z M 9.9375 6.714844 "/>
<path style=" stroke:none;fill-rule:nonzero;fill:rgb(100%,100%,100%);fill-opacity:1;" d="M 9.9375 3.390625 L 13.253906 3.390625 L 13.253906 6.714844 L 9.9375 6.714844 Z M 9.9375 3.390625 "/>
<path style=" stroke:none;fill-rule:nonzero;fill:rgb(83.921569%,48.235294%,23.529412%);fill-opacity:1;" d="M 9.9375 0.0664062 L 13.253906 0.0664062 L 13.253906 3.390625 L 9.9375 3.390625 Z M 9.9375 0.0664062 "/>
<path style=" stroke:none;fill-rule:nonzero;fill:rgb(83.921569%,48.235294%,23.529412%);fill-opacity:1;" d="M 6.625 33.285156 L 9.9375 33.285156 L 9.9375 36.609375 L 6.625 36.609375 Z M 6.625 33.285156 "/>
<path style=" stroke:none;fill-rule:nonzero;fill:rgb(83.921569%,48.235294%,23.529412%);fill-opacity:1;" d="M 6.625 29.957031 L 9.9375 29.957031 L 9.9375 33.285156 L 6.625 33.285156 Z M 6.625 29.957031 "/>
<path style=" stroke:none;fill-rule:nonzero;fill:rgb(83.921569%,48.235294%,23.529412%);fill-opacity:1;" d="M 6.625 26.632812 L 9.9375 26.632812 L 9.9375 29.957031 L 6.625 29.957031 Z M 6.625 26.632812 "/>
<path style=" stroke:none;fill-rule:nonzero;fill:rgb(83.921569%,48.235294%,23.529412%);fill-opacity:1;" d="M 6.625 23.308594 L 9.9375 23.308594 L 9.9375 26.632812 L 6.625 26.632812 Z M 6.625 23.308594 "/>
<path style=" stroke:none;fill-rule:nonzero;fill:rgb(83.921569%,48.235294%,23.529412%);fill-opacity:1;" d="M 6.625 19.984375 L 9.9375 19.984375 L 9.9375 23.308594 L 6.625 23.308594 Z M 6.625 19.984375 "/>
<path style=" stroke:none;fill-rule:nonzero;fill:rgb(83.921569%,48.235294%,23.529412%);fill-opacity:1;" d="M 6.625 16.65625 L 9.9375 16.65625 L 9.9375 19.984375 L 6.625 19.984375 Z M 6.625 16.65625 "/>
<path style=" stroke:none;fill-rule:nonzero;fill:rgb(90.588235%,33.72549%,32.941176%);fill-opacity:1;" d="M 6.625 13.367188 L 9.9375 13.367188 L 9.9375 16.691406 L 6.625 16.691406 Z M 6.625 13.367188 "/>
<path style=" stroke:none;fill-rule:nonzero;fill:rgb(92.54902%,61.568627%,56.078431%);fill-opacity:1;" d="M 6.625 10.042969 L 9.9375 10.042969 L 9.9375 13.367188 L 6.625 13.367188 Z M 6.625 10.042969 "/>
<path style=" stroke:none;fill-rule:nonzero;fill:rgb(100%,100%,100%);fill-opacity:1;" d="M 6.625 6.714844 L 9.9375 6.714844 L 9.9375 10.042969 L 6.625 10.042969 Z M 6.625 6.714844 "/>
<path style=" stroke:none;fill-rule:nonzero;fill:rgb(100%,100%,100%);fill-opacity:1;" d="M 6.625 3.390625 L 9.9375 3.390625 L 9.9375 6.714844 L 6.625 6.714844 Z M 6.625 3.390625 "/>
<path style=" stroke:none;fill-rule:nonzero;fill:rgb(83.921569%,48.235294%,23.529412%);fill-opacity:1;" d="M 6.625 0.0664062 L 9.9375 0.0664062 L 9.9375 3.390625 L 6.625 3.390625 Z M 6.625 0.0664062 "/>
<path style=" stroke:none;fill-rule:nonzero;fill:rgb(83.921569%,48.235294%,23.529412%);fill-opacity:1;" d="M 3.3125 26.632812 L 6.625 26.632812 L 6.625 29.957031 L 3.3125 29.957031 Z M 3.3125 26.632812 "/>
<path style=" stroke:none;fill-rule:nonzero;fill:rgb(83.921569%,48.235294%,23.529412%);fill-opacity:1;" d="M 3.3125 23.308594 L 6.625 23.308594 L 6.625 26.632812 L 3.3125 26.632812 Z M 3.3125 23.308594 "/>
<path style=" stroke:none;fill-rule:nonzero;fill:rgb(83.921569%,48.235294%,23.529412%);fill-opacity:1;" d="M 3.3125 19.984375 L 6.625 19.984375 L 6.625 23.308594 L 3.3125 23.308594 Z M 3.3125 19.984375 "/>
<path style=" stroke:none;fill-rule:nonzero;fill:rgb(83.921569%,48.235294%,23.529412%);fill-opacity:1;" d="M 3.3125 16.65625 L 6.625 16.65625 L 6.625 19.984375 L 3.3125 19.984375 Z M 3.3125 16.65625 "/>
<path style=" stroke:none;fill-rule:nonzero;fill:rgb(83.921569%,48.235294%,23.529412%);fill-opacity:1;" d="M 3.3125 13.367188 L 6.625 13.367188 L 6.625 16.691406 L 3.3125 16.691406 Z M 3.3125 13.367188 "/>
<path style=" stroke:none;fill-rule:nonzero;fill:rgb(100%,100%,100%);fill-opacity:1;" d="M 3.3125 10.042969 L 6.625 10.042969 L 6.625 13.367188 L 3.3125 13.367188 Z M 3.3125 10.042969 "/>
<path style=" stroke:none;fill-rule:nonzero;fill:rgb(100%,100%,100%);fill-opacity:1;" d="M 3.3125 6.714844 L 6.625 6.714844 L 6.625 10.042969 L 3.3125 10.042969 Z M 3.3125 6.714844 "/>
<path style=" stroke:none;fill-rule:nonzero;fill:rgb(100%,100%,100%);fill-opacity:1;" d="M 3.3125 3.390625 L 6.625 3.390625 L 6.625 6.714844 L 3.3125 6.714844 Z M 3.3125 3.390625 "/>
<path style=" stroke:none;fill-rule:nonzero;fill:rgb(83.921569%,48.235294%,23.529412%);fill-opacity:1;" d="M 3.3125 0.0664062 L 6.625 0.0664062 L 6.625 3.390625 L 3.3125 3.390625 Z M 3.3125 0.0664062 "/>
<path style=" stroke:none;fill-rule:nonzero;fill:rgb(83.921569%,48.235294%,23.529412%);fill-opacity:1;" d="M 0 23.308594 L 3.3125 23.308594 L 3.3125 26.632812 L 0 26.632812 Z M 0 23.308594 "/>
<path style=" stroke:none;fill-rule:nonzero;fill:rgb(83.921569%,48.235294%,23.529412%);fill-opacity:1;" d="M 0 19.984375 L 3.3125 19.984375 L 3.3125 23.308594 L 0 23.308594 Z M 0 19.984375 "/>
<path style=" stroke:none;fill-rule:nonzero;fill:rgb(83.921569%,48.235294%,23.529412%);fill-opacity:1;" d="M 0 16.65625 L 3.3125 16.65625 L 3.3125 19.984375 L 0 19.984375 Z M 0 16.65625 "/>
<path style=" stroke:none;fill-rule:nonzero;fill:rgb(83.921569%,48.235294%,23.529412%);fill-opacity:1;" d="M 0 13.367188 L 3.3125 13.367188 L 3.3125 16.691406 L 0 16.691406 Z M 0 13.367188 "/>
<path style=" stroke:none;fill-rule:nonzero;fill:rgb(83.921569%,48.235294%,23.529412%);fill-opacity:1;" d="M 0 10.042969 L 3.3125 10.042969 L 3.3125 13.367188 L 0 13.367188 Z M 0 10.042969 "/>
<path style=" stroke:none;fill-rule:nonzero;fill:rgb(83.921569%,48.235294%,23.529412%);fill-opacity:1;" d="M 0 6.714844 L 3.3125 6.714844 L 3.3125 10.042969 L 0 10.042969 Z M 0 6.714844 "/>
<path style=" stroke:none;fill-rule:nonzero;fill:rgb(83.921569%,48.235294%,23.529412%);fill-opacity:1;" d="M 0 3.390625 L 3.3125 3.390625 L 3.3125 6.714844 L 0 6.714844 Z M 0 3.390625 "/>
</g>
</svg>
