<?xml version="1.0" encoding="UTF-8"?>
<svg xmlns="http://www.w3.org/2000/svg" xmlns:xlink="http://www.w3.org/1999/xlink" width="40px" height="px" viewBox="0 0 40 40" version="1.1">
<g id="surface1">
<path style=" stroke:none;fill-rule:nonzero;fill:rgb(83.921569%,46.666667%,63.529412%);fill-opacity:1;" d="M 5 0 L 7.5 0 L 7.5 2.5 L 5 2.5 Z M 5 0 "/>
<path style=" stroke:none;fill-rule:nonzero;fill:rgb(82.745098%,42.745098%,66.27451%);fill-opacity:1;" d="M 7.5 0 L 10 0 L 10 2.5 L 7.5 2.5 Z M 7.5 0 "/>
<path style=" stroke:none;fill-rule:nonzero;fill:rgb(81.568627%,39.607843%,68.627451%);fill-opacity:1;" d="M 10 0 L 12.5 0 L 12.5 2.5 L 10 2.5 Z M 10 0 "/>
<path style=" stroke:none;fill-rule:nonzero;fill:rgb(80.392157%,36.078431%,70.980392%);fill-opacity:1;" d="M 12.5 0 L 15 0 L 15 2.5 L 12.5 2.5 Z M 12.5 0 "/>
<path style=" stroke:none;fill-rule:nonzero;fill:rgb(79.215686%,32.156863%,73.72549%);fill-opacity:1;" d="M 15 0 L 17.5 0 L 17.5 2.5 L 15 2.5 Z M 15 0 "/>
<path style=" stroke:none;fill-rule:nonzero;fill:rgb(78.039216%,29.019608%,76.470588%);fill-opacity:1;" d="M 17.5 0 L 20 0 L 20 2.5 L 17.5 2.5 Z M 17.5 0 "/>
<path style=" stroke:none;fill-rule:nonzero;fill:rgb(76.862745%,25.490196%,79.215686%);fill-opacity:1;" d="M 20 0 L 22.5 0 L 22.5 2.5 L 20 2.5 Z M 20 0 "/>
<path style=" stroke:none;fill-rule:nonzero;fill:rgb(75.686275%,21.960784%,81.568627%);fill-opacity:1;" d="M 22.5 0 L 25 0 L 25 2.5 L 22.5 2.5 Z M 22.5 0 "/>
<path style=" stroke:none;fill-rule:nonzero;fill:rgb(75.686275%,21.960784%,81.568627%);fill-opacity:1;" d="M 25 0 L 27.5 0 L 27.5 2.5 L 25 2.5 Z M 25 0 "/>
<path style=" stroke:none;fill-rule:nonzero;fill:rgb(75.686275%,21.960784%,81.568627%);fill-opacity:1;" d="M 27.5 0 L 30 0 L 30 2.5 L 27.5 2.5 Z M 27.5 0 "/>
<path style=" stroke:none;fill-rule:nonzero;fill:rgb(75.686275%,21.960784%,81.568627%);fill-opacity:1;" d="M 30 0 L 32.5 0 L 32.5 2.5 L 30 2.5 Z M 30 0 "/>
<path style=" stroke:none;fill-rule:nonzero;fill:rgb(75.686275%,21.960784%,81.568627%);fill-opacity:1;" d="M 32.5 0 L 35 0 L 35 2.5 L 32.5 2.5 Z M 32.5 0 "/>
<path style=" stroke:none;fill-rule:nonzero;fill:rgb(86.27451%,53.333333%,58.431373%);fill-opacity:1;" d="M 2.5 2.5 L 5 2.5 L 5 5 L 2.5 5 Z M 2.5 2.5 "/>
<path style=" stroke:none;fill-rule:nonzero;fill:rgb(82.352941%,40.392157%,53.72549%);fill-opacity:1;" d="M 5 2.5 L 7.5 2.5 L 7.5 5 L 5 5 Z M 5 2.5 "/>
<path style=" stroke:none;fill-rule:nonzero;fill:rgb(81.176471%,36.470588%,56.862745%);fill-opacity:1;" d="M 7.5 2.5 L 10 2.5 L 10 5 L 7.5 5 Z M 7.5 2.5 "/>
<path style=" stroke:none;fill-rule:nonzero;fill:rgb(79.607843%,32.156863%,60%);fill-opacity:1;" d="M 10 2.5 L 12.5 2.5 L 12.5 5 L 10 5 Z M 10 2.5 "/>
<path style=" stroke:none;fill-rule:nonzero;fill:rgb(78.431373%,28.235294%,62.745098%);fill-opacity:1;" d="M 12.5 2.5 L 15 2.5 L 15 5 L 12.5 5 Z M 12.5 2.5 "/>
<path style=" stroke:none;fill-rule:nonzero;fill:rgb(76.862745%,23.921569%,65.882353%);fill-opacity:1;" d="M 15 2.5 L 17.5 2.5 L 17.5 5 L 15 5 Z M 15 2.5 "/>
<path style=" stroke:none;fill-rule:nonzero;fill:rgb(75.294118%,19.607843%,69.019608%);fill-opacity:1;" d="M 17.5 2.5 L 20 2.5 L 20 5 L 17.5 5 Z M 17.5 2.5 "/>
<path style=" stroke:none;fill-rule:nonzero;fill:rgb(74.117647%,15.686275%,72.156863%);fill-opacity:1;" d="M 20 2.5 L 22.5 2.5 L 22.5 5 L 20 5 Z M 20 2.5 "/>
<path style=" stroke:none;fill-rule:nonzero;fill:rgb(72.54902%,11.372549%,75.294118%);fill-opacity:1;" d="M 22.5 2.5 L 25 2.5 L 25 5 L 22.5 5 Z M 22.5 2.5 "/>
<path style=" stroke:none;fill-rule:nonzero;fill:rgb(71.372549%,7.45098%,78.431373%);fill-opacity:1;" d="M 25 2.5 L 27.5 2.5 L 27.5 5 L 25 5 Z M 25 2.5 "/>
<path style=" stroke:none;fill-rule:nonzero;fill:rgb(71.372549%,7.45098%,78.431373%);fill-opacity:1;" d="M 27.5 2.5 L 30 2.5 L 30 5 L 27.5 5 Z M 27.5 2.5 "/>
<path style=" stroke:none;fill-rule:nonzero;fill:rgb(71.372549%,7.45098%,78.431373%);fill-opacity:1;" d="M 30 2.5 L 32.5 2.5 L 32.5 5 L 30 5 Z M 30 2.5 "/>
<path style=" stroke:none;fill-rule:nonzero;fill:rgb(71.372549%,7.45098%,78.431373%);fill-opacity:1;" d="M 32.5 2.5 L 35 2.5 L 35 5 L 32.5 5 Z M 32.5 2.5 "/>
<path style=" stroke:none;fill-rule:nonzero;fill:rgb(71.372549%,7.45098%,78.431373%);fill-opacity:1;" d="M 35 2.5 L 37.5 2.5 L 37.5 5 L 35 5 Z M 35 2.5 "/>
<path style=" stroke:none;fill-rule:nonzero;fill:rgb(88.627451%,60.392157%,52.941176%);fill-opacity:1;" d="M 0 5 L 2.5 5 L 2.5 7.5 L 0 7.5 Z M 0 5 "/>
<path style=" stroke:none;fill-rule:nonzero;fill:rgb(85.490196%,49.019608%,47.45098%);fill-opacity:1;" d="M 2.5 5 L 5 5 L 5 7.5 L 2.5 7.5 Z M 2.5 5 "/>
<path style=" stroke:none;fill-rule:nonzero;fill:rgb(83.921569%,44.705882%,50.588235%);fill-opacity:1;" d="M 5 5 L 7.5 5 L 7.5 7.5 L 5 7.5 Z M 5 5 "/>
<path style=" stroke:none;fill-rule:nonzero;fill:rgb(82.352941%,40.392157%,53.72549%);fill-opacity:1;" d="M 7.5 5 L 10 5 L 10 7.5 L 7.5 7.5 Z M 7.5 5 "/>
<path style=" stroke:none;fill-rule:nonzero;fill:rgb(100%,100%,100%);fill-opacity:1;" d="M 10 5 L 12.5 5 L 12.5 7.5 L 10 7.5 Z M 10 5 "/>
<path style=" stroke:none;fill-rule:nonzero;fill:rgb(100%,100%,100%);fill-opacity:1;" d="M 12.5 5 L 15 5 L 15 7.5 L 12.5 7.5 Z M 12.5 5 "/>
<path style=" stroke:none;fill-rule:nonzero;fill:rgb(100%,100%,100%);fill-opacity:1;" d="M 15 5 L 17.5 5 L 17.5 7.5 L 15 7.5 Z M 15 5 "/>
<path style=" stroke:none;fill-rule:nonzero;fill:rgb(100%,100%,100%);fill-opacity:1;" d="M 17.5 5 L 20 5 L 20 7.5 L 17.5 7.5 Z M 17.5 5 "/>
<path style=" stroke:none;fill-rule:nonzero;fill:rgb(100%,100%,100%);fill-opacity:1;" d="M 20 5 L 22.5 5 L 22.5 7.5 L 20 7.5 Z M 20 5 "/>
<path style=" stroke:none;fill-rule:nonzero;fill:rgb(100%,100%,100%);fill-opacity:1;" d="M 22.5 5 L 25 5 L 25 7.5 L 22.5 7.5 Z M 22.5 5 "/>
<path style=" stroke:none;fill-rule:nonzero;fill:rgb(100%,100%,100%);fill-opacity:1;" d="M 25 5 L 27.5 5 L 27.5 7.5 L 25 7.5 Z M 25 5 "/>
<path style=" stroke:none;fill-rule:nonzero;fill:rgb(100%,100%,100%);fill-opacity:1;" d="M 27.5 5 L 30 5 L 30 7.5 L 27.5 7.5 Z M 27.5 5 "/>
<path style=" stroke:none;fill-rule:nonzero;fill:rgb(71.372549%,7.45098%,78.431373%);fill-opacity:1;" d="M 30 5 L 32.5 5 L 32.5 7.5 L 30 7.5 Z M 30 5 "/>
<path style=" stroke:none;fill-rule:nonzero;fill:rgb(71.372549%,7.45098%,78.431373%);fill-opacity:1;" d="M 32.5 5 L 35 5 L 35 7.5 L 32.5 7.5 Z M 32.5 5 "/>
<path style=" stroke:none;fill-rule:nonzero;fill:rgb(71.372549%,7.45098%,78.431373%);fill-opacity:1;" d="M 35 5 L 37.5 5 L 37.5 7.5 L 35 7.5 Z M 35 5 "/>
<path style=" stroke:none;fill-rule:nonzero;fill:rgb(60%,6.27451%,65.882353%);fill-opacity:1;" d="M 37.5 5 L 40 5 L 40 7.5 L 37.5 7.5 Z M 37.5 5 "/>
<path style=" stroke:none;fill-rule:nonzero;fill:rgb(89.803922%,63.921569%,50.588235%);fill-opacity:1;" d="M 0 7.5 L 2.5 7.5 L 2.5 10 L 0 10 Z M 0 7.5 "/>
<path style=" stroke:none;fill-rule:nonzero;fill:rgb(86.666667%,52.941176%,44.313725%);fill-opacity:1;" d="M 2.5 7.5 L 5 7.5 L 5 10 L 2.5 10 Z M 2.5 7.5 "/>
<path style=" stroke:none;fill-rule:nonzero;fill:rgb(85.490196%,49.019608%,47.45098%);fill-opacity:1;" d="M 5 7.5 L 7.5 7.5 L 7.5 10 L 5 10 Z M 5 7.5 "/>
<path style=" stroke:none;fill-rule:nonzero;fill:rgb(100%,100%,100%);fill-opacity:1;" d="M 7.5 7.5 L 10 7.5 L 10 10 L 7.5 10 Z M 7.5 7.5 "/>
<path style=" stroke:none;fill-rule:nonzero;fill:rgb(82.352941%,40.392157%,53.72549%);fill-opacity:1;" d="M 10 7.5 L 12.5 7.5 L 12.5 10 L 10 10 Z M 10 7.5 "/>
<path style=" stroke:none;fill-rule:nonzero;fill:rgb(81.176471%,36.470588%,56.862745%);fill-opacity:1;" d="M 12.5 7.5 L 15 7.5 L 15 10 L 12.5 10 Z M 12.5 7.5 "/>
<path style=" stroke:none;fill-rule:nonzero;fill:rgb(79.607843%,32.156863%,60%);fill-opacity:1;" d="M 15 7.5 L 17.5 7.5 L 17.5 10 L 15 10 Z M 15 7.5 "/>
<path style=" stroke:none;fill-rule:nonzero;fill:rgb(78.431373%,28.235294%,62.745098%);fill-opacity:1;" d="M 17.5 7.5 L 20 7.5 L 20 10 L 17.5 10 Z M 17.5 7.5 "/>
<path style=" stroke:none;fill-rule:nonzero;fill:rgb(76.862745%,23.921569%,65.882353%);fill-opacity:1;" d="M 20 7.5 L 22.5 7.5 L 22.5 10 L 20 10 Z M 20 7.5 "/>
<path style=" stroke:none;fill-rule:nonzero;fill:rgb(75.294118%,19.607843%,69.019608%);fill-opacity:1;" d="M 22.5 7.5 L 25 7.5 L 25 10 L 22.5 10 Z M 22.5 7.5 "/>
<path style=" stroke:none;fill-rule:nonzero;fill:rgb(74.117647%,15.686275%,72.156863%);fill-opacity:1;" d="M 25 7.5 L 27.5 7.5 L 27.5 10 L 25 10 Z M 25 7.5 "/>
<path style=" stroke:none;fill-rule:nonzero;fill:rgb(72.54902%,11.372549%,75.294118%);fill-opacity:1;" d="M 27.5 7.5 L 30 7.5 L 30 10 L 27.5 10 Z M 27.5 7.5 "/>
<path style=" stroke:none;fill-rule:nonzero;fill:rgb(100%,100%,100%);fill-opacity:1;" d="M 30 7.5 L 32.5 7.5 L 32.5 10 L 30 10 Z M 30 7.5 "/>
<path style=" stroke:none;fill-rule:nonzero;fill:rgb(71.372549%,7.45098%,78.431373%);fill-opacity:1;" d="M 32.5 7.5 L 35 7.5 L 35 10 L 32.5 10 Z M 32.5 7.5 "/>
<path style=" stroke:none;fill-rule:nonzero;fill:rgb(71.372549%,7.45098%,78.431373%);fill-opacity:1;" d="M 35 7.5 L 37.5 7.5 L 37.5 10 L 35 10 Z M 35 7.5 "/>
<path style=" stroke:none;fill-rule:nonzero;fill:rgb(60%,6.27451%,65.882353%);fill-opacity:1;" d="M 37.5 7.5 L 40 7.5 L 40 10 L 37.5 10 Z M 37.5 7.5 "/>
<path style=" stroke:none;fill-rule:nonzero;fill:rgb(90.980392%,67.058824%,48.235294%);fill-opacity:1;" d="M 0 10 L 2.5 10 L 2.5 12.5 L 0 12.5 Z M 0 10 "/>
<path style=" stroke:none;fill-rule:nonzero;fill:rgb(88.235294%,57.254902%,41.176471%);fill-opacity:1;" d="M 2.5 10 L 5 10 L 5 12.5 L 2.5 12.5 Z M 2.5 10 "/>
<path style=" stroke:none;fill-rule:nonzero;fill:rgb(100%,100%,100%);fill-opacity:1;" d="M 5 10 L 7.5 10 L 7.5 12.5 L 5 12.5 Z M 5 10 "/>
<path style=" stroke:none;fill-rule:nonzero;fill:rgb(85.490196%,49.019608%,47.45098%);fill-opacity:1;" d="M 7.5 10 L 10 10 L 10 12.5 L 7.5 12.5 Z M 7.5 10 "/>
<path style=" stroke:none;fill-rule:nonzero;fill:rgb(83.921569%,44.705882%,50.588235%);fill-opacity:1;" d="M 10 10 L 12.5 10 L 12.5 12.5 L 10 12.5 Z M 10 10 "/>
<path style=" stroke:none;fill-rule:nonzero;fill:rgb(82.352941%,40.392157%,53.72549%);fill-opacity:1;" d="M 12.5 10 L 15 10 L 15 12.5 L 12.5 12.5 Z M 12.5 10 "/>
<path style=" stroke:none;fill-rule:nonzero;fill:rgb(81.176471%,36.470588%,56.862745%);fill-opacity:1;" d="M 15 10 L 17.5 10 L 17.5 12.5 L 15 12.5 Z M 15 10 "/>
<path style=" stroke:none;fill-rule:nonzero;fill:rgb(79.607843%,32.156863%,60%);fill-opacity:1;" d="M 17.5 10 L 20 10 L 20 12.5 L 17.5 12.5 Z M 17.5 10 "/>
<path style=" stroke:none;fill-rule:nonzero;fill:rgb(78.431373%,28.235294%,62.745098%);fill-opacity:1;" d="M 20 10 L 22.5 10 L 22.5 12.5 L 20 12.5 Z M 20 10 "/>
<path style=" stroke:none;fill-rule:nonzero;fill:rgb(76.862745%,23.921569%,65.882353%);fill-opacity:1;" d="M 22.5 10 L 25 10 L 25 12.5 L 22.5 12.5 Z M 22.5 10 "/>
<path style=" stroke:none;fill-rule:nonzero;fill:rgb(75.294118%,19.607843%,69.019608%);fill-opacity:1;" d="M 25 10 L 27.5 10 L 27.5 12.5 L 25 12.5 Z M 25 10 "/>
<path style=" stroke:none;fill-rule:nonzero;fill:rgb(74.117647%,15.686275%,72.156863%);fill-opacity:1;" d="M 27.5 10 L 30 10 L 30 12.5 L 27.5 12.5 Z M 27.5 10 "/>
<path style=" stroke:none;fill-rule:nonzero;fill:rgb(72.54902%,11.372549%,75.294118%);fill-opacity:1;" d="M 30 10 L 32.5 10 L 32.5 12.5 L 30 12.5 Z M 30 10 "/>
<path style=" stroke:none;fill-rule:nonzero;fill:rgb(100%,100%,100%);fill-opacity:1;" d="M 32.5 10 L 35 10 L 35 12.5 L 32.5 12.5 Z M 32.5 10 "/>
<path style=" stroke:none;fill-rule:nonzero;fill:rgb(71.372549%,7.45098%,78.431373%);fill-opacity:1;" d="M 35 10 L 37.5 10 L 37.5 12.5 L 35 12.5 Z M 35 10 "/>
<path style=" stroke:none;fill-rule:nonzero;fill:rgb(60%,6.27451%,65.882353%);fill-opacity:1;" d="M 37.5 10 L 40 10 L 40 12.5 L 37.5 12.5 Z M 37.5 10 "/>
<path style=" stroke:none;fill-rule:nonzero;fill:rgb(92.156863%,70.980392%,45.490196%);fill-opacity:1;" d="M 0 12.5 L 2.5 12.5 L 2.5 15 L 0 15 Z M 0 12.5 "/>
<path style=" stroke:none;fill-rule:nonzero;fill:rgb(89.411765%,61.176471%,38.431373%);fill-opacity:1;" d="M 2.5 12.5 L 5 12.5 L 5 15 L 2.5 15 Z M 2.5 12.5 "/>
<path style=" stroke:none;fill-rule:nonzero;fill:rgb(100%,100%,100%);fill-opacity:1;" d="M 5 12.5 L 7.5 12.5 L 7.5 15 L 5 15 Z M 5 12.5 "/>
<path style=" stroke:none;fill-rule:nonzero;fill:rgb(86.666667%,52.941176%,44.313725%);fill-opacity:1;" d="M 7.5 12.5 L 10 12.5 L 10 15 L 7.5 15 Z M 7.5 12.5 "/>
<path style=" stroke:none;fill-rule:nonzero;fill:rgb(85.490196%,49.019608%,47.45098%);fill-opacity:1;" d="M 10 12.5 L 12.5 12.5 L 12.5 15 L 10 15 Z M 10 12.5 "/>
<path style=" stroke:none;fill-rule:nonzero;fill:rgb(83.921569%,44.705882%,50.588235%);fill-opacity:1;" d="M 12.5 12.5 L 15 12.5 L 15 15 L 12.5 15 Z M 12.5 12.5 "/>
<path style=" stroke:none;fill-rule:nonzero;fill:rgb(82.352941%,40.392157%,53.72549%);fill-opacity:1;" d="M 15 12.5 L 17.5 12.5 L 17.5 15 L 15 15 Z M 15 12.5 "/>
<path style=" stroke:none;fill-rule:nonzero;fill:rgb(100%,100%,100%);fill-opacity:1;" d="M 17.5 12.5 L 20 12.5 L 20 15 L 17.5 15 Z M 17.5 12.5 "/>
<path style=" stroke:none;fill-rule:nonzero;fill:rgb(100%,100%,100%);fill-opacity:1;" d="M 20 12.5 L 22.5 12.5 L 22.5 15 L 20 15 Z M 20 12.5 "/>
<path style=" stroke:none;fill-rule:nonzero;fill:rgb(78.431373%,28.235294%,62.745098%);fill-opacity:1;" d="M 22.5 12.5 L 25 12.5 L 25 15 L 22.5 15 Z M 22.5 12.5 "/>
<path style=" stroke:none;fill-rule:nonzero;fill:rgb(100%,100%,100%);fill-opacity:1;" d="M 25 12.5 L 27.5 12.5 L 27.5 15 L 25 15 Z M 25 12.5 "/>
<path style=" stroke:none;fill-rule:nonzero;fill:rgb(75.294118%,19.607843%,69.019608%);fill-opacity:1;" d="M 27.5 12.5 L 30 12.5 L 30 15 L 27.5 15 Z M 27.5 12.5 "/>
<path style=" stroke:none;fill-rule:nonzero;fill:rgb(74.117647%,15.686275%,72.156863%);fill-opacity:1;" d="M 30 12.5 L 32.5 12.5 L 32.5 15 L 30 15 Z M 30 12.5 "/>
<path style=" stroke:none;fill-rule:nonzero;fill:rgb(100%,100%,100%);fill-opacity:1;" d="M 32.5 12.5 L 35 12.5 L 35 15 L 32.5 15 Z M 32.5 12.5 "/>
<path style=" stroke:none;fill-rule:nonzero;fill:rgb(71.372549%,7.45098%,78.431373%);fill-opacity:1;" d="M 35 12.5 L 37.5 12.5 L 37.5 15 L 35 15 Z M 35 12.5 "/>
<path style=" stroke:none;fill-rule:nonzero;fill:rgb(60%,6.27451%,65.882353%);fill-opacity:1;" d="M 37.5 12.5 L 40 12.5 L 40 15 L 37.5 15 Z M 37.5 12.5 "/>
<path style=" stroke:none;fill-rule:nonzero;fill:rgb(93.72549%,74.509804%,42.745098%);fill-opacity:1;" d="M 0 15 L 2.5 15 L 2.5 17.5 L 0 17.5 Z M 0 15 "/>
<path style=" stroke:none;fill-rule:nonzero;fill:rgb(90.980392%,65.490196%,35.294118%);fill-opacity:1;" d="M 2.5 15 L 5 15 L 5 17.5 L 2.5 17.5 Z M 2.5 15 "/>
<path style=" stroke:none;fill-rule:nonzero;fill:rgb(100%,100%,100%);fill-opacity:1;" d="M 5 15 L 7.5 15 L 7.5 17.5 L 5 17.5 Z M 5 15 "/>
<path style=" stroke:none;fill-rule:nonzero;fill:rgb(88.235294%,57.254902%,41.176471%);fill-opacity:1;" d="M 7.5 15 L 10 15 L 10 17.5 L 7.5 17.5 Z M 7.5 15 "/>
<path style=" stroke:none;fill-rule:nonzero;fill:rgb(86.666667%,52.941176%,44.313725%);fill-opacity:1;" d="M 10 15 L 12.5 15 L 12.5 17.5 L 10 17.5 Z M 10 15 "/>
<path style=" stroke:none;fill-rule:nonzero;fill:rgb(85.490196%,49.019608%,47.45098%);fill-opacity:1;" d="M 12.5 15 L 15 15 L 15 17.5 L 12.5 17.5 Z M 12.5 15 "/>
<path style=" stroke:none;fill-rule:nonzero;fill:rgb(100%,100%,100%);fill-opacity:1;" d="M 15 15 L 17.5 15 L 17.5 17.5 L 15 17.5 Z M 15 15 "/>
<path style=" stroke:none;fill-rule:nonzero;fill:rgb(82.352941%,40.392157%,53.72549%);fill-opacity:1;" d="M 17.5 15 L 20 15 L 20 17.5 L 17.5 17.5 Z M 17.5 15 "/>
<path style=" stroke:none;fill-rule:nonzero;fill:rgb(81.176471%,36.470588%,56.862745%);fill-opacity:1;" d="M 20 15 L 22.5 15 L 22.5 17.5 L 20 17.5 Z M 20 15 "/>
<path style=" stroke:none;fill-rule:nonzero;fill:rgb(100%,100%,100%);fill-opacity:1;" d="M 22.5 15 L 25 15 L 25 17.5 L 22.5 17.5 Z M 22.5 15 "/>
<path style=" stroke:none;fill-rule:nonzero;fill:rgb(78.431373%,28.235294%,62.745098%);fill-opacity:1;" d="M 25 15 L 27.5 15 L 27.5 17.5 L 25 17.5 Z M 25 15 "/>
<path style=" stroke:none;fill-rule:nonzero;fill:rgb(76.862745%,23.921569%,65.882353%);fill-opacity:1;" d="M 27.5 15 L 30 15 L 30 17.5 L 27.5 17.5 Z M 27.5 15 "/>
<path style=" stroke:none;fill-rule:nonzero;fill:rgb(75.294118%,19.607843%,69.019608%);fill-opacity:1;" d="M 30 15 L 32.5 15 L 32.5 17.5 L 30 17.5 Z M 30 15 "/>
<path style=" stroke:none;fill-rule:nonzero;fill:rgb(100%,100%,100%);fill-opacity:1;" d="M 32.5 15 L 35 15 L 35 17.5 L 32.5 17.5 Z M 32.5 15 "/>
<path style=" stroke:none;fill-rule:nonzero;fill:rgb(72.54902%,11.372549%,75.294118%);fill-opacity:1;" d="M 35 15 L 37.5 15 L 37.5 17.5 L 35 17.5 Z M 35 15 "/>
<path style=" stroke:none;fill-rule:nonzero;fill:rgb(60%,6.27451%,65.882353%);fill-opacity:1;" d="M 37.5 15 L 40 15 L 40 17.5 L 37.5 17.5 Z M 37.5 15 "/>
<path style=" stroke:none;fill-rule:nonzero;fill:rgb(94.509804%,77.647059%,40.392157%);fill-opacity:1;" d="M 0 17.5 L 2.5 17.5 L 2.5 20 L 0 20 Z M 0 17.5 "/>
<path style=" stroke:none;fill-rule:nonzero;fill:rgb(92.54902%,69.803922%,32.156863%);fill-opacity:1;" d="M 2.5 17.5 L 5 17.5 L 5 20 L 2.5 20 Z M 2.5 17.5 "/>
<path style=" stroke:none;fill-rule:nonzero;fill:rgb(100%,100%,100%);fill-opacity:1;" d="M 5 17.5 L 7.5 17.5 L 7.5 20 L 5 20 Z M 5 17.5 "/>
<path style=" stroke:none;fill-rule:nonzero;fill:rgb(89.411765%,61.176471%,38.431373%);fill-opacity:1;" d="M 7.5 17.5 L 10 17.5 L 10 20 L 7.5 20 Z M 7.5 17.5 "/>
<path style=" stroke:none;fill-rule:nonzero;fill:rgb(88.235294%,57.254902%,41.176471%);fill-opacity:1;" d="M 10 17.5 L 12.5 17.5 L 12.5 20 L 10 20 Z M 10 17.5 "/>
<path style=" stroke:none;fill-rule:nonzero;fill:rgb(100%,100%,100%);fill-opacity:1;" d="M 12.5 17.5 L 15 17.5 L 15 20 L 12.5 20 Z M 12.5 17.5 "/>
<path style=" stroke:none;fill-rule:nonzero;fill:rgb(85.490196%,49.019608%,47.45098%);fill-opacity:1;" d="M 15 17.5 L 17.5 17.5 L 17.5 20 L 15 20 Z M 15 17.5 "/>
<path style=" stroke:none;fill-rule:nonzero;fill:rgb(83.921569%,44.705882%,50.588235%);fill-opacity:1;" d="M 17.5 17.5 L 20 17.5 L 20 20 L 17.5 20 Z M 17.5 17.5 "/>
<path style=" stroke:none;fill-rule:nonzero;fill:rgb(82.352941%,40.392157%,53.72549%);fill-opacity:1;" d="M 20 17.5 L 22.5 17.5 L 22.5 20 L 20 20 Z M 20 17.5 "/>
<path style=" stroke:none;fill-rule:nonzero;fill:rgb(81.176471%,36.470588%,56.862745%);fill-opacity:1;" d="M 22.5 17.5 L 25 17.5 L 25 20 L 22.5 20 Z M 22.5 17.5 "/>
<path style=" stroke:none;fill-rule:nonzero;fill:rgb(100%,100%,100%);fill-opacity:1;" d="M 25 17.5 L 27.5 17.5 L 27.5 20 L 25 20 Z M 25 17.5 "/>
<path style=" stroke:none;fill-rule:nonzero;fill:rgb(78.431373%,28.235294%,62.745098%);fill-opacity:1;" d="M 27.5 17.5 L 30 17.5 L 30 20 L 27.5 20 Z M 27.5 17.5 "/>
<path style=" stroke:none;fill-rule:nonzero;fill:rgb(76.862745%,23.921569%,65.882353%);fill-opacity:1;" d="M 30 17.5 L 32.5 17.5 L 32.5 20 L 30 20 Z M 30 17.5 "/>
<path style=" stroke:none;fill-rule:nonzero;fill:rgb(100%,100%,100%);fill-opacity:1;" d="M 32.5 17.5 L 35 17.5 L 35 20 L 32.5 20 Z M 32.5 17.5 "/>
<path style=" stroke:none;fill-rule:nonzero;fill:rgb(74.117647%,15.686275%,72.156863%);fill-opacity:1;" d="M 35 17.5 L 37.5 17.5 L 37.5 20 L 35 20 Z M 35 17.5 "/>
<path style=" stroke:none;fill-rule:nonzero;fill:rgb(61.176471%,9.803922%,63.529412%);fill-opacity:1;" d="M 37.5 17.5 L 40 17.5 L 40 20 L 37.5 20 Z M 37.5 17.5 "/>
<path style=" stroke:none;fill-rule:nonzero;fill:rgb(95.686275%,81.568627%,37.647059%);fill-opacity:1;" d="M 0 20 L 2.5 20 L 2.5 22.5 L 0 22.5 Z M 0 20 "/>
<path style=" stroke:none;fill-rule:nonzero;fill:rgb(93.72549%,73.72549%,29.019608%);fill-opacity:1;" d="M 2.5 20 L 5 20 L 5 22.5 L 2.5 22.5 Z M 2.5 20 "/>
<path style=" stroke:none;fill-rule:nonzero;fill:rgb(100%,100%,100%);fill-opacity:1;" d="M 5 20 L 7.5 20 L 7.5 22.5 L 5 22.5 Z M 5 20 "/>
<path style=" stroke:none;fill-rule:nonzero;fill:rgb(90.980392%,65.490196%,35.294118%);fill-opacity:1;" d="M 7.5 20 L 10 20 L 10 22.5 L 7.5 22.5 Z M 7.5 20 "/>
<path style=" stroke:none;fill-rule:nonzero;fill:rgb(89.411765%,61.176471%,38.431373%);fill-opacity:1;" d="M 10 20 L 12.5 20 L 12.5 22.5 L 10 22.5 Z M 10 20 "/>
<path style=" stroke:none;fill-rule:nonzero;fill:rgb(100%,100%,100%);fill-opacity:1;" d="M 12.5 20 L 15 20 L 15 22.5 L 12.5 22.5 Z M 12.5 20 "/>
<path style=" stroke:none;fill-rule:nonzero;fill:rgb(86.666667%,52.941176%,44.313725%);fill-opacity:1;" d="M 15 20 L 17.5 20 L 17.5 22.5 L 15 22.5 Z M 15 20 "/>
<path style=" stroke:none;fill-rule:nonzero;fill:rgb(85.490196%,49.019608%,47.45098%);fill-opacity:1;" d="M 17.5 20 L 20 20 L 20 22.5 L 17.5 22.5 Z M 17.5 20 "/>
<path style=" stroke:none;fill-rule:nonzero;fill:rgb(83.921569%,44.705882%,50.588235%);fill-opacity:1;" d="M 20 20 L 22.5 20 L 22.5 22.5 L 20 22.5 Z M 20 20 "/>
<path style=" stroke:none;fill-rule:nonzero;fill:rgb(82.352941%,40.392157%,53.72549%);fill-opacity:1;" d="M 22.5 20 L 25 20 L 25 22.5 L 22.5 22.5 Z M 22.5 20 "/>
<path style=" stroke:none;fill-rule:nonzero;fill:rgb(100%,100%,100%);fill-opacity:1;" d="M 25 20 L 27.5 20 L 27.5 22.5 L 25 22.5 Z M 25 20 "/>
<path style=" stroke:none;fill-rule:nonzero;fill:rgb(79.607843%,32.156863%,60%);fill-opacity:1;" d="M 27.5 20 L 30 20 L 30 22.5 L 27.5 22.5 Z M 27.5 20 "/>
<path style=" stroke:none;fill-rule:nonzero;fill:rgb(78.431373%,28.235294%,62.745098%);fill-opacity:1;" d="M 30 20 L 32.5 20 L 32.5 22.5 L 30 22.5 Z M 30 20 "/>
<path style=" stroke:none;fill-rule:nonzero;fill:rgb(100%,100%,100%);fill-opacity:1;" d="M 32.5 20 L 35 20 L 35 22.5 L 32.5 22.5 Z M 32.5 20 "/>
<path style=" stroke:none;fill-rule:nonzero;fill:rgb(75.294118%,19.607843%,69.019608%);fill-opacity:1;" d="M 35 20 L 37.5 20 L 37.5 22.5 L 35 22.5 Z M 35 20 "/>
<path style=" stroke:none;fill-rule:nonzero;fill:rgb(62.352941%,13.333333%,60.784314%);fill-opacity:1;" d="M 37.5 20 L 40 20 L 40 22.5 L 37.5 22.5 Z M 37.5 20 "/>
<path style=" stroke:none;fill-rule:nonzero;fill:rgb(97.254902%,85.098039%,35.294118%);fill-opacity:1;" d="M 0 22.5 L 2.5 22.5 L 2.5 25 L 0 25 Z M 0 22.5 "/>
<path style=" stroke:none;fill-rule:nonzero;fill:rgb(95.294118%,78.039216%,25.882353%);fill-opacity:1;" d="M 2.5 22.5 L 5 22.5 L 5 25 L 2.5 25 Z M 2.5 22.5 "/>
<path style=" stroke:none;fill-rule:nonzero;fill:rgb(100%,100%,100%);fill-opacity:1;" d="M 5 22.5 L 7.5 22.5 L 7.5 25 L 5 25 Z M 5 22.5 "/>
<path style=" stroke:none;fill-rule:nonzero;fill:rgb(92.54902%,69.803922%,32.156863%);fill-opacity:1;" d="M 7.5 22.5 L 10 22.5 L 10 25 L 7.5 25 Z M 7.5 22.5 "/>
<path style=" stroke:none;fill-rule:nonzero;fill:rgb(90.980392%,65.490196%,35.294118%);fill-opacity:1;" d="M 10 22.5 L 12.5 22.5 L 12.5 25 L 10 25 Z M 10 22.5 "/>
<path style=" stroke:none;fill-rule:nonzero;fill:rgb(89.411765%,61.176471%,38.431373%);fill-opacity:1;" d="M 12.5 22.5 L 15 22.5 L 15 25 L 12.5 25 Z M 12.5 22.5 "/>
<path style=" stroke:none;fill-rule:nonzero;fill:rgb(100%,100%,100%);fill-opacity:1;" d="M 15 22.5 L 17.5 22.5 L 17.5 25 L 15 25 Z M 15 22.5 "/>
<path style=" stroke:none;fill-rule:nonzero;fill:rgb(86.666667%,52.941176%,44.313725%);fill-opacity:1;" d="M 17.5 22.5 L 20 22.5 L 20 25 L 17.5 25 Z M 17.5 22.5 "/>
<path style=" stroke:none;fill-rule:nonzero;fill:rgb(85.490196%,49.019608%,47.45098%);fill-opacity:1;" d="M 20 22.5 L 22.5 22.5 L 22.5 25 L 20 25 Z M 20 22.5 "/>
<path style=" stroke:none;fill-rule:nonzero;fill:rgb(100%,100%,100%);fill-opacity:1;" d="M 22.5 22.5 L 25 22.5 L 25 25 L 22.5 25 Z M 22.5 22.5 "/>
<path style=" stroke:none;fill-rule:nonzero;fill:rgb(82.352941%,40.392157%,53.72549%);fill-opacity:1;" d="M 25 22.5 L 27.5 22.5 L 27.5 25 L 25 25 Z M 25 22.5 "/>
<path style=" stroke:none;fill-rule:nonzero;fill:rgb(81.176471%,36.470588%,56.862745%);fill-opacity:1;" d="M 27.5 22.5 L 30 22.5 L 30 25 L 27.5 25 Z M 27.5 22.5 "/>
<path style=" stroke:none;fill-rule:nonzero;fill:rgb(79.607843%,32.156863%,60%);fill-opacity:1;" d="M 30 22.5 L 32.5 22.5 L 32.5 25 L 30 25 Z M 30 22.5 "/>
<path style=" stroke:none;fill-rule:nonzero;fill:rgb(100%,100%,100%);fill-opacity:1;" d="M 32.5 22.5 L 35 22.5 L 35 25 L 32.5 25 Z M 32.5 22.5 "/>
<path style=" stroke:none;fill-rule:nonzero;fill:rgb(76.862745%,23.921569%,65.882353%);fill-opacity:1;" d="M 35 22.5 L 37.5 22.5 L 37.5 25 L 35 25 Z M 35 22.5 "/>
<path style=" stroke:none;fill-rule:nonzero;fill:rgb(63.529412%,16.470588%,58.039216%);fill-opacity:1;" d="M 37.5 22.5 L 40 22.5 L 40 25 L 37.5 25 Z M 37.5 22.5 "/>
<path style=" stroke:none;fill-rule:nonzero;fill:rgb(97.254902%,85.098039%,35.294118%);fill-opacity:1;" d="M 0 25 L 2.5 25 L 2.5 27.5 L 0 27.5 Z M 0 25 "/>
<path style=" stroke:none;fill-rule:nonzero;fill:rgb(96.862745%,82.352941%,22.745098%);fill-opacity:1;" d="M 2.5 25 L 5 25 L 5 27.5 L 2.5 27.5 Z M 2.5 25 "/>
<path style=" stroke:none;fill-rule:nonzero;fill:rgb(100%,100%,100%);fill-opacity:1;" d="M 5 25 L 7.5 25 L 7.5 27.5 L 5 27.5 Z M 5 25 "/>
<path style=" stroke:none;fill-rule:nonzero;fill:rgb(93.72549%,73.72549%,29.019608%);fill-opacity:1;" d="M 7.5 25 L 10 25 L 10 27.5 L 7.5 27.5 Z M 7.5 25 "/>
<path style=" stroke:none;fill-rule:nonzero;fill:rgb(92.54902%,69.803922%,32.156863%);fill-opacity:1;" d="M 10 25 L 12.5 25 L 12.5 27.5 L 10 27.5 Z M 10 25 "/>
<path style=" stroke:none;fill-rule:nonzero;fill:rgb(90.980392%,65.490196%,35.294118%);fill-opacity:1;" d="M 12.5 25 L 15 25 L 15 27.5 L 12.5 27.5 Z M 12.5 25 "/>
<path style=" stroke:none;fill-rule:nonzero;fill:rgb(89.411765%,61.176471%,38.431373%);fill-opacity:1;" d="M 15 25 L 17.5 25 L 17.5 27.5 L 15 27.5 Z M 15 25 "/>
<path style=" stroke:none;fill-rule:nonzero;fill:rgb(100%,100%,100%);fill-opacity:1;" d="M 17.5 25 L 20 25 L 20 27.5 L 17.5 27.5 Z M 17.5 25 "/>
<path style=" stroke:none;fill-rule:nonzero;fill:rgb(100%,100%,100%);fill-opacity:1;" d="M 20 25 L 22.5 25 L 22.5 27.5 L 20 27.5 Z M 20 25 "/>
<path style=" stroke:none;fill-rule:nonzero;fill:rgb(85.490196%,49.019608%,47.45098%);fill-opacity:1;" d="M 22.5 25 L 25 25 L 25 27.5 L 22.5 27.5 Z M 22.5 25 "/>
<path style=" stroke:none;fill-rule:nonzero;fill:rgb(83.921569%,44.705882%,50.588235%);fill-opacity:1;" d="M 25 25 L 27.5 25 L 27.5 27.5 L 25 27.5 Z M 25 25 "/>
<path style=" stroke:none;fill-rule:nonzero;fill:rgb(82.352941%,40.392157%,53.72549%);fill-opacity:1;" d="M 27.5 25 L 30 25 L 30 27.5 L 27.5 27.5 Z M 27.5 25 "/>
<path style=" stroke:none;fill-rule:nonzero;fill:rgb(81.176471%,36.470588%,56.862745%);fill-opacity:1;" d="M 30 25 L 32.5 25 L 32.5 27.5 L 30 27.5 Z M 30 25 "/>
<path style=" stroke:none;fill-rule:nonzero;fill:rgb(100%,100%,100%);fill-opacity:1;" d="M 32.5 25 L 35 25 L 35 27.5 L 32.5 27.5 Z M 32.5 25 "/>
<path style=" stroke:none;fill-rule:nonzero;fill:rgb(78.431373%,28.235294%,62.745098%);fill-opacity:1;" d="M 35 25 L 37.5 25 L 37.5 27.5 L 35 27.5 Z M 35 25 "/>
<path style=" stroke:none;fill-rule:nonzero;fill:rgb(64.705882%,20.392157%,55.294118%);fill-opacity:1;" d="M 37.5 25 L 40 25 L 40 27.5 L 37.5 27.5 Z M 37.5 25 "/>
<path style=" stroke:none;fill-rule:nonzero;fill:rgb(97.254902%,85.098039%,35.294118%);fill-opacity:1;" d="M 0 27.5 L 2.5 27.5 L 2.5 30 L 0 30 Z M 0 27.5 "/>
<path style=" stroke:none;fill-rule:nonzero;fill:rgb(96.862745%,82.352941%,23.137255%);fill-opacity:1;" d="M 2.5 27.5 L 5 27.5 L 5 30 L 2.5 30 Z M 2.5 27.5 "/>
<path style=" stroke:none;fill-rule:nonzero;fill:rgb(100%,100%,100%);fill-opacity:1;" d="M 5 27.5 L 7.5 27.5 L 7.5 30 L 5 30 Z M 5 27.5 "/>
<path style=" stroke:none;fill-rule:nonzero;fill:rgb(95.294118%,78.039216%,25.882353%);fill-opacity:1;" d="M 7.5 27.5 L 10 27.5 L 10 30 L 7.5 30 Z M 7.5 27.5 "/>
<path style=" stroke:none;fill-rule:nonzero;fill:rgb(93.72549%,73.72549%,29.019608%);fill-opacity:1;" d="M 10 27.5 L 12.5 27.5 L 12.5 30 L 10 30 Z M 10 27.5 "/>
<path style=" stroke:none;fill-rule:nonzero;fill:rgb(92.54902%,69.803922%,32.156863%);fill-opacity:1;" d="M 12.5 27.5 L 15 27.5 L 15 30 L 12.5 30 Z M 12.5 27.5 "/>
<path style=" stroke:none;fill-rule:nonzero;fill:rgb(90.980392%,65.490196%,35.294118%);fill-opacity:1;" d="M 15 27.5 L 17.5 27.5 L 17.5 30 L 15 30 Z M 15 27.5 "/>
<path style=" stroke:none;fill-rule:nonzero;fill:rgb(89.411765%,61.176471%,38.431373%);fill-opacity:1;" d="M 17.5 27.5 L 20 27.5 L 20 30 L 17.5 30 Z M 17.5 27.5 "/>
<path style=" stroke:none;fill-rule:nonzero;fill:rgb(88.235294%,57.254902%,41.176471%);fill-opacity:1;" d="M 20 27.5 L 22.5 27.5 L 22.5 30 L 20 30 Z M 20 27.5 "/>
<path style=" stroke:none;fill-rule:nonzero;fill:rgb(86.666667%,52.941176%,44.313725%);fill-opacity:1;" d="M 22.5 27.5 L 25 27.5 L 25 30 L 22.5 30 Z M 22.5 27.5 "/>
<path style=" stroke:none;fill-rule:nonzero;fill:rgb(85.490196%,49.019608%,47.45098%);fill-opacity:1;" d="M 25 27.5 L 27.5 27.5 L 27.5 30 L 25 30 Z M 25 27.5 "/>
<path style=" stroke:none;fill-rule:nonzero;fill:rgb(83.921569%,44.705882%,50.588235%);fill-opacity:1;" d="M 27.5 27.5 L 30 27.5 L 30 30 L 27.5 30 Z M 27.5 27.5 "/>
<path style=" stroke:none;fill-rule:nonzero;fill:rgb(82.352941%,40.392157%,53.72549%);fill-opacity:1;" d="M 30 27.5 L 32.5 27.5 L 32.5 30 L 30 30 Z M 30 27.5 "/>
<path style=" stroke:none;fill-rule:nonzero;fill:rgb(100%,100%,100%);fill-opacity:1;" d="M 32.5 27.5 L 35 27.5 L 35 30 L 32.5 30 Z M 32.5 27.5 "/>
<path style=" stroke:none;fill-rule:nonzero;fill:rgb(79.607843%,32.156863%,60%);fill-opacity:1;" d="M 35 27.5 L 37.5 27.5 L 37.5 30 L 35 30 Z M 35 27.5 "/>
<path style=" stroke:none;fill-rule:nonzero;fill:rgb(65.882353%,23.921569%,52.941176%);fill-opacity:1;" d="M 37.5 27.5 L 40 27.5 L 40 30 L 37.5 30 Z M 37.5 27.5 "/>
<path style=" stroke:none;fill-rule:nonzero;fill:rgb(97.254902%,85.098039%,35.294118%);fill-opacity:1;" d="M 0 30 L 2.5 30 L 2.5 32.5 L 0 32.5 Z M 0 30 "/>
<path style=" stroke:none;fill-rule:nonzero;fill:rgb(96.862745%,82.352941%,23.137255%);fill-opacity:1;" d="M 2.5 30 L 5 30 L 5 32.5 L 2.5 32.5 Z M 2.5 30 "/>
<path style=" stroke:none;fill-rule:nonzero;fill:rgb(96.862745%,82.352941%,23.137255%);fill-opacity:1;" d="M 5 30 L 7.5 30 L 7.5 32.5 L 5 32.5 Z M 5 30 "/>
<path style=" stroke:none;fill-rule:nonzero;fill:rgb(100%,100%,100%);fill-opacity:1;" d="M 7.5 30 L 10 30 L 10 32.5 L 7.5 32.5 Z M 7.5 30 "/>
<path style=" stroke:none;fill-rule:nonzero;fill:rgb(95.294118%,78.039216%,25.882353%);fill-opacity:1;" d="M 10 30 L 12.5 30 L 12.5 32.5 L 10 32.5 Z M 10 30 "/>
<path style=" stroke:none;fill-rule:nonzero;fill:rgb(93.72549%,73.72549%,29.019608%);fill-opacity:1;" d="M 12.5 30 L 15 30 L 15 32.5 L 12.5 32.5 Z M 12.5 30 "/>
<path style=" stroke:none;fill-rule:nonzero;fill:rgb(92.54902%,69.803922%,32.156863%);fill-opacity:1;" d="M 15 30 L 17.5 30 L 17.5 32.5 L 15 32.5 Z M 15 30 "/>
<path style=" stroke:none;fill-rule:nonzero;fill:rgb(90.980392%,65.490196%,35.294118%);fill-opacity:1;" d="M 17.5 30 L 20 30 L 20 32.5 L 17.5 32.5 Z M 17.5 30 "/>
<path style=" stroke:none;fill-rule:nonzero;fill:rgb(89.411765%,61.176471%,38.431373%);fill-opacity:1;" d="M 20 30 L 22.5 30 L 22.5 32.5 L 20 32.5 Z M 20 30 "/>
<path style=" stroke:none;fill-rule:nonzero;fill:rgb(88.235294%,57.254902%,41.176471%);fill-opacity:1;" d="M 22.5 30 L 25 30 L 25 32.5 L 22.5 32.5 Z M 22.5 30 "/>
<path style=" stroke:none;fill-rule:nonzero;fill:rgb(86.666667%,52.941176%,44.313725%);fill-opacity:1;" d="M 25 30 L 27.5 30 L 27.5 32.5 L 25 32.5 Z M 25 30 "/>
<path style=" stroke:none;fill-rule:nonzero;fill:rgb(85.490196%,49.019608%,47.45098%);fill-opacity:1;" d="M 27.5 30 L 30 30 L 30 32.5 L 27.5 32.5 Z M 27.5 30 "/>
<path style=" stroke:none;fill-rule:nonzero;fill:rgb(100%,100%,100%);fill-opacity:1;" d="M 30 30 L 32.5 30 L 32.5 32.5 L 30 32.5 Z M 30 30 "/>
<path style=" stroke:none;fill-rule:nonzero;fill:rgb(82.352941%,40.392157%,53.72549%);fill-opacity:1;" d="M 32.5 30 L 35 30 L 35 32.5 L 32.5 32.5 Z M 32.5 30 "/>
<path style=" stroke:none;fill-rule:nonzero;fill:rgb(81.176471%,36.470588%,56.862745%);fill-opacity:1;" d="M 35 30 L 37.5 30 L 37.5 32.5 L 35 32.5 Z M 35 30 "/>
<path style=" stroke:none;fill-rule:nonzero;fill:rgb(67.058824%,27.058824%,50.588235%);fill-opacity:1;" d="M 37.5 30 L 40 30 L 40 32.5 L 37.5 32.5 Z M 37.5 30 "/>
<path style=" stroke:none;fill-rule:nonzero;fill:rgb(97.254902%,85.098039%,35.294118%);fill-opacity:1;" d="M 0 32.5 L 2.5 32.5 L 2.5 35 L 0 35 Z M 0 32.5 "/>
<path style=" stroke:none;fill-rule:nonzero;fill:rgb(96.862745%,82.352941%,23.137255%);fill-opacity:1;" d="M 2.5 32.5 L 5 32.5 L 5 35 L 2.5 35 Z M 2.5 32.5 "/>
<path style=" stroke:none;fill-rule:nonzero;fill:rgb(96.862745%,82.352941%,23.137255%);fill-opacity:1;" d="M 5 32.5 L 7.5 32.5 L 7.5 35 L 5 35 Z M 5 32.5 "/>
<path style=" stroke:none;fill-rule:nonzero;fill:rgb(96.862745%,82.352941%,23.137255%);fill-opacity:1;" d="M 7.5 32.5 L 10 32.5 L 10 35 L 7.5 35 Z M 7.5 32.5 "/>
<path style=" stroke:none;fill-rule:nonzero;fill:rgb(100%,100%,100%);fill-opacity:1;" d="M 10 32.5 L 12.5 32.5 L 12.5 35 L 10 35 Z M 10 32.5 "/>
<path style=" stroke:none;fill-rule:nonzero;fill:rgb(100%,100%,100%);fill-opacity:1;" d="M 12.5 32.5 L 15 32.5 L 15 35 L 12.5 35 Z M 12.5 32.5 "/>
<path style=" stroke:none;fill-rule:nonzero;fill:rgb(100%,100%,100%);fill-opacity:1;" d="M 15 32.5 L 17.5 32.5 L 17.5 35 L 15 35 Z M 15 32.5 "/>
<path style=" stroke:none;fill-rule:nonzero;fill:rgb(100%,100%,100%);fill-opacity:1;" d="M 17.5 32.5 L 20 32.5 L 20 35 L 17.5 35 Z M 17.5 32.5 "/>
<path style=" stroke:none;fill-rule:nonzero;fill:rgb(100%,100%,100%);fill-opacity:1;" d="M 20 32.5 L 22.5 32.5 L 22.5 35 L 20 35 Z M 20 32.5 "/>
<path style=" stroke:none;fill-rule:nonzero;fill:rgb(100%,100%,100%);fill-opacity:1;" d="M 22.5 32.5 L 25 32.5 L 25 35 L 22.5 35 Z M 22.5 32.5 "/>
<path style=" stroke:none;fill-rule:nonzero;fill:rgb(100%,100%,100%);fill-opacity:1;" d="M 25 32.5 L 27.5 32.5 L 27.5 35 L 25 35 Z M 25 32.5 "/>
<path style=" stroke:none;fill-rule:nonzero;fill:rgb(100%,100%,100%);fill-opacity:1;" d="M 27.5 32.5 L 30 32.5 L 30 35 L 27.5 35 Z M 27.5 32.5 "/>
<path style=" stroke:none;fill-rule:nonzero;fill:rgb(85.490196%,49.019608%,47.45098%);fill-opacity:1;" d="M 30 32.5 L 32.5 32.5 L 32.5 35 L 30 35 Z M 30 32.5 "/>
<path style=" stroke:none;fill-rule:nonzero;fill:rgb(83.921569%,44.705882%,50.588235%);fill-opacity:1;" d="M 32.5 32.5 L 35 32.5 L 35 35 L 32.5 35 Z M 32.5 32.5 "/>
<path style=" stroke:none;fill-rule:nonzero;fill:rgb(82.352941%,40.392157%,53.72549%);fill-opacity:1;" d="M 35 32.5 L 37.5 32.5 L 37.5 35 L 35 35 Z M 35 32.5 "/>
<path style=" stroke:none;fill-rule:nonzero;fill:rgb(68.235294%,30.980392%,47.843137%);fill-opacity:1;" d="M 37.5 32.5 L 40 32.5 L 40 35 L 37.5 35 Z M 37.5 32.5 "/>
<path style=" stroke:none;fill-rule:nonzero;fill:rgb(96.862745%,82.352941%,23.137255%);fill-opacity:1;" d="M 2.5 35 L 5 35 L 5 37.5 L 2.5 37.5 Z M 2.5 35 "/>
<path style=" stroke:none;fill-rule:nonzero;fill:rgb(96.862745%,82.352941%,23.137255%);fill-opacity:1;" d="M 5 35 L 7.5 35 L 7.5 37.5 L 5 37.5 Z M 5 35 "/>
<path style=" stroke:none;fill-rule:nonzero;fill:rgb(96.862745%,82.352941%,23.137255%);fill-opacity:1;" d="M 7.5 35 L 10 35 L 10 37.5 L 7.5 37.5 Z M 7.5 35 "/>
<path style=" stroke:none;fill-rule:nonzero;fill:rgb(96.862745%,82.352941%,23.137255%);fill-opacity:1;" d="M 10 35 L 12.5 35 L 12.5 37.5 L 10 37.5 Z M 10 35 "/>
<path style=" stroke:none;fill-rule:nonzero;fill:rgb(96.862745%,82.352941%,22.745098%);fill-opacity:1;" d="M 12.5 35 L 15 35 L 15 37.5 L 12.5 37.5 Z M 12.5 35 "/>
<path style=" stroke:none;fill-rule:nonzero;fill:rgb(95.294118%,78.039216%,25.882353%);fill-opacity:1;" d="M 15 35 L 17.5 35 L 17.5 37.5 L 15 37.5 Z M 15 35 "/>
<path style=" stroke:none;fill-rule:nonzero;fill:rgb(93.72549%,73.72549%,29.019608%);fill-opacity:1;" d="M 17.5 35 L 20 35 L 20 37.5 L 17.5 37.5 Z M 17.5 35 "/>
<path style=" stroke:none;fill-rule:nonzero;fill:rgb(92.54902%,69.803922%,32.156863%);fill-opacity:1;" d="M 20 35 L 22.5 35 L 22.5 37.5 L 20 37.5 Z M 20 35 "/>
<path style=" stroke:none;fill-rule:nonzero;fill:rgb(90.980392%,65.490196%,35.294118%);fill-opacity:1;" d="M 22.5 35 L 25 35 L 25 37.5 L 22.5 37.5 Z M 22.5 35 "/>
<path style=" stroke:none;fill-rule:nonzero;fill:rgb(89.411765%,61.176471%,38.431373%);fill-opacity:1;" d="M 25 35 L 27.5 35 L 27.5 37.5 L 25 37.5 Z M 25 35 "/>
<path style=" stroke:none;fill-rule:nonzero;fill:rgb(88.235294%,57.254902%,41.176471%);fill-opacity:1;" d="M 27.5 35 L 30 35 L 30 37.5 L 27.5 37.5 Z M 27.5 35 "/>
<path style=" stroke:none;fill-rule:nonzero;fill:rgb(86.666667%,52.941176%,44.313725%);fill-opacity:1;" d="M 30 35 L 32.5 35 L 32.5 37.5 L 30 37.5 Z M 30 35 "/>
<path style=" stroke:none;fill-rule:nonzero;fill:rgb(85.490196%,49.019608%,47.45098%);fill-opacity:1;" d="M 32.5 35 L 35 35 L 35 37.5 L 32.5 37.5 Z M 32.5 35 "/>
<path style=" stroke:none;fill-rule:nonzero;fill:rgb(70.588235%,37.647059%,42.745098%);fill-opacity:1;" d="M 35 35 L 37.5 35 L 37.5 37.5 L 35 37.5 Z M 35 35 "/>
<path style=" stroke:none;fill-rule:nonzero;fill:rgb(81.568627%,69.411765%,19.607843%);fill-opacity:1;" d="M 5 37.5 L 7.5 37.5 L 7.5 40 L 5 40 Z M 5 37.5 "/>
<path style=" stroke:none;fill-rule:nonzero;fill:rgb(81.568627%,69.411765%,19.607843%);fill-opacity:1;" d="M 7.5 37.5 L 10 37.5 L 10 40 L 7.5 40 Z M 7.5 37.5 "/>
<path style=" stroke:none;fill-rule:nonzero;fill:rgb(81.568627%,69.411765%,19.607843%);fill-opacity:1;" d="M 10 37.5 L 12.5 37.5 L 12.5 40 L 10 40 Z M 10 37.5 "/>
<path style=" stroke:none;fill-rule:nonzero;fill:rgb(81.568627%,69.411765%,19.607843%);fill-opacity:1;" d="M 12.5 37.5 L 15 37.5 L 15 40 L 12.5 40 Z M 12.5 37.5 "/>
<path style=" stroke:none;fill-rule:nonzero;fill:rgb(81.568627%,69.411765%,19.607843%);fill-opacity:1;" d="M 15 37.5 L 17.5 37.5 L 17.5 40 L 15 40 Z M 15 37.5 "/>
<path style=" stroke:none;fill-rule:nonzero;fill:rgb(80%,65.882353%,21.960784%);fill-opacity:1;" d="M 17.5 37.5 L 20 37.5 L 20 40 L 17.5 40 Z M 17.5 37.5 "/>
<path style=" stroke:none;fill-rule:nonzero;fill:rgb(78.823529%,61.960784%,24.705882%);fill-opacity:1;" d="M 20 37.5 L 22.5 37.5 L 22.5 40 L 20 40 Z M 20 37.5 "/>
<path style=" stroke:none;fill-rule:nonzero;fill:rgb(78.039216%,58.823529%,27.058824%);fill-opacity:1;" d="M 22.5 37.5 L 25 37.5 L 25 40 L 22.5 40 Z M 22.5 37.5 "/>
<path style=" stroke:none;fill-rule:nonzero;fill:rgb(76.470588%,55.294118%,29.803922%);fill-opacity:1;" d="M 25 37.5 L 27.5 37.5 L 27.5 40 L 25 40 Z M 25 37.5 "/>
<path style=" stroke:none;fill-rule:nonzero;fill:rgb(75.294118%,51.372549%,32.54902%);fill-opacity:1;" d="M 27.5 37.5 L 30 37.5 L 30 40 L 27.5 40 Z M 27.5 37.5 "/>
<path style=" stroke:none;fill-rule:nonzero;fill:rgb(74.117647%,48.235294%,34.901961%);fill-opacity:1;" d="M 30 37.5 L 32.5 37.5 L 32.5 40 L 30 40 Z M 30 37.5 "/>
<path style=" stroke:none;fill-rule:nonzero;fill:rgb(72.941176%,44.705882%,37.254902%);fill-opacity:1;" d="M 32.5 37.5 L 35 37.5 L 35 40 L 32.5 40 Z M 32.5 37.5 "/>
</g>
</svg>
