<?xml version="1.0" encoding="UTF-8"?>
<svg xmlns="http://www.w3.org/2000/svg" xmlns:xlink="http://www.w3.org/1999/xlink" width="300px" height="95px" viewBox="0 0 297 95" version="1.1">
<g id="surface1">
<path style=" stroke:none;fill-rule:nonzero;fill:rgb(6.666667%,61.568627%,23.529412%);fill-opacity:1;" d="M 11.382812 94.664062 L 11.382812 85.472656 L 8.324219 91.496094 L 6.21875 91.496094 L 3.160156 85.472656 L 3.160156 94.664062 L 0 94.664062 L 0 78.925781 L 3.054688 78.925781 L 7.273438 87.480469 L 11.488281 78.925781 L 14.542969 78.925781 L 14.542969 94.664062 Z M 11.382812 94.664062 "/>
<path style=" stroke:none;fill-rule:nonzero;fill:rgb(6.666667%,61.568627%,23.529412%);fill-opacity:1;" d="M 18.234375 94.664062 L 18.234375 78.925781 L 21.394531 78.925781 L 21.394531 94.664062 Z M 18.234375 94.664062 "/>
<path style=" stroke:none;fill-rule:nonzero;fill:rgb(6.666667%,61.568627%,23.529412%);fill-opacity:1;" d="M 30.5625 94.769531 C 28.878906 94.769531 27.402344 94.242188 26.242188 93.078125 C 25.503906 92.445312 25.082031 91.601562 24.976562 90.753906 C 24.765625 89.910156 24.664062 88.539062 24.664062 86.847656 C 24.664062 85.15625 24.765625 83.785156 24.976562 82.9375 C 25.1875 81.988281 25.609375 81.25 26.242188 80.613281 C 27.402344 79.453125 28.878906 78.925781 30.5625 78.925781 C 33.621094 78.925781 35.9375 80.722656 36.464844 83.890625 L 33.304688 83.890625 C 32.988281 82.515625 32.144531 81.671875 30.5625 81.671875 C 29.722656 81.671875 28.984375 81.988281 28.5625 82.515625 C 27.929688 83.148438 27.824219 83.890625 27.824219 86.953125 C 27.824219 90.015625 27.929688 90.753906 28.5625 91.390625 C 28.984375 91.917969 29.722656 92.234375 30.5625 92.234375 C 32.039062 92.234375 32.882812 91.390625 33.304688 90.015625 L 36.464844 90.015625 C 35.832031 92.972656 33.621094 94.769531 30.5625 94.769531 Z M 30.5625 94.769531 "/>
<path style=" stroke:none;fill-rule:nonzero;fill:rgb(6.666667%,61.568627%,23.529412%);fill-opacity:1;" d="M 47.636719 94.664062 L 44.476562 88.328125 L 42.261719 88.328125 L 42.261719 94.664062 L 39.101562 94.664062 L 39.101562 78.925781 L 45.425781 78.925781 C 48.691406 78.925781 50.589844 81.144531 50.589844 83.785156 C 50.589844 86.003906 49.21875 87.375 47.636719 87.902344 L 51.222656 94.664062 Z M 45.214844 81.671875 L 42.261719 81.671875 L 42.261719 85.792969 L 45.214844 85.792969 C 46.585938 85.792969 47.53125 84.945312 47.53125 83.679688 C 47.53125 82.515625 46.585938 81.671875 45.214844 81.671875 Z M 45.214844 81.671875 "/>
<path style=" stroke:none;fill-rule:nonzero;fill:rgb(6.666667%,61.568627%,23.529412%);fill-opacity:1;" d="M 63.550781 93.078125 C 62.394531 94.136719 61.023438 94.769531 59.230469 94.769531 C 57.441406 94.769531 55.964844 94.136719 54.910156 93.078125 C 53.328125 91.496094 53.328125 89.488281 53.328125 86.742188 C 53.328125 83.996094 53.328125 82.09375 54.910156 80.402344 C 56.070312 79.347656 57.441406 78.714844 59.230469 78.714844 C 61.023438 78.714844 62.394531 79.347656 63.550781 80.402344 C 65.132812 81.988281 65.132812 83.996094 65.132812 86.742188 C 65.132812 89.488281 65.238281 91.496094 63.550781 93.078125 Z M 61.234375 82.304688 C 60.8125 81.777344 60.074219 81.460938 59.230469 81.460938 C 58.386719 81.460938 57.652344 81.777344 57.230469 82.304688 C 56.597656 82.9375 56.492188 83.679688 56.492188 86.742188 C 56.492188 89.804688 56.597656 90.542969 57.230469 91.179688 C 57.652344 91.707031 58.386719 92.023438 59.230469 92.023438 C 60.074219 92.023438 60.8125 91.707031 61.234375 91.179688 C 61.867188 90.542969 61.972656 89.804688 61.972656 86.742188 C 62.078125 83.679688 61.867188 83.042969 61.234375 82.304688 Z M 61.234375 82.304688 "/>
<path style=" stroke:none;fill-rule:nonzero;fill:rgb(6.666667%,61.568627%,23.529412%);fill-opacity:1;" d="M 68.402344 94.664062 L 68.402344 78.925781 L 71.5625 78.925781 L 71.5625 94.664062 Z M 68.402344 94.664062 "/>
<path style=" stroke:none;fill-rule:nonzero;fill:rgb(6.666667%,61.568627%,23.529412%);fill-opacity:1;" d="M 85.261719 93.183594 C 84.210938 94.242188 82.734375 94.664062 81.046875 94.664062 L 75.25 94.664062 L 75.25 78.925781 L 81.046875 78.925781 C 82.734375 78.925781 84.210938 79.347656 85.261719 80.402344 C 87.054688 82.199219 86.84375 84.3125 86.84375 86.742188 C 86.84375 89.171875 87.054688 91.390625 85.261719 93.183594 Z M 83.050781 82.621094 C 82.523438 81.988281 81.785156 81.671875 80.730469 81.671875 L 78.414062 81.671875 L 78.414062 91.917969 L 80.730469 91.917969 C 81.785156 91.917969 82.523438 91.601562 83.050781 90.96875 C 83.683594 90.226562 83.683594 89.171875 83.683594 86.742188 C 83.683594 84.3125 83.683594 83.257812 83.050781 82.621094 Z M 83.050781 82.621094 "/>
<path style=" stroke:none;fill-rule:nonzero;fill:rgb(6.666667%,61.568627%,23.529412%);fill-opacity:1;" d="M 94.539062 94.769531 C 92.113281 94.769531 90.21875 94.242188 88.636719 92.65625 L 90.640625 90.648438 C 91.691406 91.601562 93.0625 92.023438 94.539062 92.023438 C 96.433594 92.023438 97.382812 91.390625 97.382812 90.121094 C 97.382812 89.59375 97.277344 89.066406 96.855469 88.75 C 96.539062 88.433594 96.226562 88.328125 95.488281 88.21875 L 93.589844 87.902344 C 92.21875 87.691406 91.164062 87.269531 90.429688 86.636719 C 89.691406 85.898438 89.269531 84.839844 89.269531 83.574219 C 89.269531 80.722656 91.375 78.820312 94.855469 78.820312 C 97.066406 78.820312 98.648438 79.347656 100.019531 80.613281 L 98.015625 82.515625 C 96.960938 81.566406 95.804688 81.460938 94.75 81.460938 C 93.0625 81.460938 92.21875 82.410156 92.21875 83.46875 C 92.21875 83.890625 92.324219 84.3125 92.640625 84.628906 C 92.957031 84.945312 93.484375 85.15625 94.117188 85.261719 L 96.015625 85.578125 C 97.488281 85.792969 98.4375 86.214844 99.070312 86.847656 C 99.914062 87.691406 100.335938 88.75 100.335938 90.226562 C 100.441406 93.078125 97.910156 94.769531 94.539062 94.769531 Z M 94.539062 94.769531 "/>
<path style=" stroke:none;fill-rule:nonzero;fill:rgb(6.666667%,61.568627%,23.529412%);fill-opacity:1;" d="M 64.816406 0.230469 L 22.238281 0.230469 C 18.65625 0.230469 15.703125 3.1875 15.703125 6.78125 L 15.703125 49.453125 C 15.703125 60.441406 24.664062 69.417969 35.625 69.417969 L 78.203125 69.417969 C 81.785156 69.417969 84.738281 66.460938 84.738281 62.871094 L 84.738281 20.195312 C 84.738281 9.207031 75.882812 0.230469 64.816406 0.230469 Z M 59.652344 53.257812 C 59.652344 53.46875 59.441406 53.574219 59.230469 53.574219 C 57.546875 53.363281 55.648438 53.152344 53.644531 53.046875 C 53.433594 53.046875 53.328125 52.835938 53.328125 52.730469 L 53.328125 22.730469 C 53.328125 22.519531 53.539062 22.414062 53.644531 22.414062 C 55.542969 22.519531 57.441406 22.625 59.230469 22.941406 C 59.441406 22.941406 59.546875 23.152344 59.546875 23.257812 L 59.546875 53.257812 Z M 71.773438 56.425781 C 70.929688 56.109375 69.03125 55.582031 66.1875 54.945312 C 66.082031 54.945312 65.871094 54.734375 65.871094 54.628906 L 65.871094 17.976562 C 65.871094 17.765625 65.765625 17.660156 65.554688 17.660156 C 60.496094 16.496094 55.332031 15.96875 49.957031 15.96875 C 44.792969 15.96875 39.628906 16.601562 34.675781 17.660156 C 34.464844 17.660156 34.359375 17.871094 34.359375 17.976562 L 34.359375 48.082031 C 34.359375 48.292969 34.570312 48.503906 34.78125 48.398438 C 36.570312 47.976562 38.46875 47.660156 40.367188 47.445312 C 40.578125 47.445312 40.683594 47.234375 40.683594 47.128906 L 40.683594 23.152344 C 40.683594 22.941406 40.789062 22.835938 41 22.835938 C 42.894531 22.625 44.6875 22.414062 46.585938 22.308594 C 46.792969 22.308594 46.898438 22.414062 46.898438 22.625 L 46.898438 52.730469 C 46.898438 52.941406 46.792969 53.046875 46.585938 53.046875 C 37.941406 53.574219 30.5625 55.792969 28.667969 56.425781 C 28.457031 56.53125 28.246094 56.320312 28.246094 56.109375 L 28.246094 13.328125 C 28.246094 13.222656 28.351562 13.011719 28.457031 13.011719 C 35.203125 10.898438 42.472656 9.632812 50.0625 9.632812 C 50.167969 9.632812 50.273438 9.632812 50.378906 9.738281 L 55.542969 15.863281 C 55.648438 15.96875 55.859375 16.074219 56.070312 15.863281 L 62.078125 10.6875 C 62.183594 10.582031 62.289062 10.582031 62.394531 10.582031 C 65.765625 11.109375 68.925781 11.957031 72.089844 12.90625 C 72.195312 12.90625 72.300781 13.117188 72.300781 13.222656 L 72.300781 55.898438 C 72.195312 56.320312 71.984375 56.425781 71.773438 56.425781 Z M 71.773438 56.425781 "/>
<path style=" stroke:none;fill-rule:nonzero;fill:rgb(100%,100%,100%);fill-opacity:1;" d="M 286.988281 35.195312 L 286.988281 40.054688 L 288.570312 40.054688 L 288.570312 32.023438 L 286.988281 32.023438 Z M 286.988281 35.195312 "/>
<path style=" stroke:none;fill-rule:nonzero;fill:rgb(100%,100%,100%);fill-opacity:1;" d="M 285.40625 41.636719 L 285.40625 44.910156 L 286.988281 44.910156 L 286.988281 40.054688 L 285.40625 40.054688 Z M 285.40625 41.636719 "/>
<path style=" stroke:none;fill-rule:nonzero;fill:rgb(100%,100%,100%);fill-opacity:1;" d="M 285.40625 30.335938 L 285.40625 32.023438 L 286.988281 32.023438 L 286.988281 27.167969 L 285.40625 27.167969 Z M 285.40625 30.335938 "/>
<path style=" stroke:none;fill-rule:nonzero;fill:rgb(100%,100%,100%);fill-opacity:1;" d="M 283.71875 46.496094 L 283.71875 48.082031 L 285.40625 48.082031 L 285.40625 44.910156 L 283.71875 44.910156 Z M 283.71875 46.496094 "/>
<path style=" stroke:none;fill-rule:nonzero;fill:rgb(100%,100%,100%);fill-opacity:1;" d="M 283.71875 27.167969 L 285.40625 27.167969 L 285.40625 23.996094 L 283.71875 23.996094 Z M 283.71875 27.167969 "/>
<path style=" stroke:none;fill-rule:nonzero;fill:rgb(100%,100%,100%);fill-opacity:1;" d="M 282.140625 48.082031 L 283.71875 48.082031 L 283.71875 49.664062 L 282.140625 49.664062 Z M 282.140625 48.082031 "/>
<path style=" stroke:none;fill-rule:nonzero;fill:rgb(100%,100%,100%);fill-opacity:1;" d="M 282.140625 22.308594 L 283.71875 22.308594 L 283.71875 23.890625 L 282.140625 23.890625 Z M 282.140625 22.308594 "/>
<path style=" stroke:none;fill-rule:nonzero;fill:rgb(100%,100%,100%);fill-opacity:1;" d="M 280.558594 49.664062 L 282.140625 49.664062 L 282.140625 51.25 L 280.558594 51.25 Z M 280.558594 49.664062 "/>
<path style=" stroke:none;fill-rule:nonzero;fill:rgb(100%,100%,100%);fill-opacity:1;" d="M 280.558594 30.335938 L 282.140625 30.335938 L 282.140625 31.917969 L 280.558594 31.917969 Z M 280.558594 30.335938 "/>
<path style=" stroke:none;fill-rule:nonzero;fill:rgb(100%,100%,100%);fill-opacity:1;" d="M 280.558594 20.722656 L 282.140625 20.722656 L 282.140625 22.308594 L 280.558594 22.308594 Z M 280.558594 20.722656 "/>
<path style=" stroke:none;fill-rule:nonzero;fill:rgb(100%,100%,100%);fill-opacity:1;" d="M 278.976562 51.25 L 280.558594 51.25 L 280.558594 52.835938 L 278.976562 52.835938 Z M 278.976562 51.25 "/>
<path style=" stroke:none;fill-rule:nonzero;fill:rgb(100%,100%,100%);fill-opacity:1;" d="M 278.976562 19.136719 L 280.558594 19.136719 L 280.558594 20.722656 L 278.976562 20.722656 Z M 278.976562 19.136719 "/>
<path style=" stroke:none;fill-rule:nonzero;fill:rgb(100%,100%,100%);fill-opacity:1;" d="M 278.976562 52.941406 L 275.710938 52.941406 L 275.710938 54.523438 L 278.976562 54.523438 Z M 278.976562 52.941406 "/>
<path style=" stroke:none;fill-rule:nonzero;fill:rgb(100%,100%,100%);fill-opacity:1;" d="M 277.292969 51.25 L 277.292969 44.910156 L 275.710938 44.910156 L 275.710938 46.496094 L 270.863281 46.496094 L 270.863281 44.910156 L 266.121094 44.910156 L 266.121094 46.496094 L 269.28125 46.496094 L 269.28125 48.082031 L 270.863281 48.082031 L 270.863281 49.664062 L 272.546875 49.664062 L 272.546875 51.25 Z M 277.292969 51.25 "/>
<path style=" stroke:none;fill-rule:nonzero;fill:rgb(100%,100%,100%);fill-opacity:1;" d="M 277.292969 30.335938 L 280.558594 30.335938 L 280.558594 28.75 L 274.128906 28.75 L 274.128906 30.335938 Z M 277.292969 30.335938 "/>
<path style=" stroke:none;fill-rule:nonzero;fill:rgb(100%,100%,100%);fill-opacity:1;" d="M 277.292969 19.136719 L 278.976562 19.136719 L 278.976562 17.554688 L 275.710938 17.554688 L 275.710938 19.136719 Z M 277.292969 19.136719 "/>
<path style=" stroke:none;fill-rule:nonzero;fill:rgb(100%,100%,100%);fill-opacity:1;" d="M 272.546875 54.523438 L 270.863281 54.523438 L 270.863281 56.109375 L 275.710938 56.109375 L 275.710938 54.523438 Z M 272.546875 54.523438 "/>
<path style=" stroke:none;fill-rule:nonzero;fill:rgb(100%,100%,100%);fill-opacity:1;" d="M 274.128906 44.910156 L 275.710938 44.910156 L 275.710938 43.222656 L 270.863281 43.222656 L 270.863281 44.910156 Z M 274.128906 44.910156 "/>
<path style=" stroke:none;fill-rule:nonzero;fill:rgb(100%,100%,100%);fill-opacity:1;" d="M 272.546875 30.335938 L 274.128906 30.335938 L 274.128906 31.917969 L 272.546875 31.917969 Z M 272.546875 30.335938 "/>
<path style=" stroke:none;fill-rule:nonzero;fill:rgb(100%,100%,100%);fill-opacity:1;" d="M 272.546875 17.554688 L 275.710938 17.554688 L 275.710938 15.863281 L 270.863281 15.863281 L 270.863281 17.554688 Z M 272.546875 17.554688 "/>
<path style=" stroke:none;fill-rule:nonzero;fill:rgb(100%,100%,100%);fill-opacity:1;" d="M 267.699219 56.109375 L 262.851562 56.109375 L 262.851562 57.691406 L 270.863281 57.691406 L 270.863281 56.109375 Z M 267.699219 56.109375 "/>
<path style=" stroke:none;fill-rule:nonzero;fill:rgb(100%,100%,100%);fill-opacity:1;" d="M 269.28125 43.222656 L 269.28125 41.636719 L 270.863281 41.636719 L 270.863281 40.054688 L 282.140625 40.054688 L 282.140625 38.46875 L 283.71875 38.46875 L 283.71875 32.023438 L 282.140625 32.023438 L 282.140625 33.609375 L 272.546875 33.609375 L 272.546875 32.023438 L 270.863281 32.023438 L 270.863281 33.609375 L 269.28125 33.609375 L 269.28125 36.777344 L 267.699219 36.777344 L 267.699219 40.054688 L 266.121094 40.054688 L 266.121094 43.222656 Z M 269.28125 43.222656 "/>
<path style=" stroke:none;fill-rule:nonzero;fill:rgb(100%,100%,100%);fill-opacity:1;" d="M 264.433594 43.222656 L 266.015625 43.222656 L 266.015625 44.804688 L 264.433594 44.804688 Z M 264.433594 43.222656 "/>
<path style=" stroke:none;fill-rule:nonzero;fill:rgb(100%,100%,100%);fill-opacity:1;" d="M 264.433594 25.582031 L 266.015625 25.582031 L 266.015625 27.167969 L 264.433594 27.167969 Z M 264.433594 25.582031 "/>
<path style=" stroke:none;fill-rule:nonzero;fill:rgb(100%,100%,100%);fill-opacity:1;" d="M 266.121094 15.863281 L 270.863281 15.863281 L 270.863281 14.277344 L 262.851562 14.277344 L 262.851562 15.863281 Z M 266.121094 15.863281 "/>
<path style=" stroke:none;fill-rule:nonzero;fill:rgb(100%,100%,100%);fill-opacity:1;" d="M 264.433594 38.46875 L 264.433594 35.195312 L 266.121094 35.195312 L 266.121094 33.609375 L 267.699219 33.609375 L 267.699219 27.167969 L 266.121094 27.167969 L 266.121094 28.75 L 262.851562 28.75 L 262.851562 27.167969 L 259.691406 27.167969 L 259.691406 25.582031 L 256.421875 25.582031 L 256.421875 23.996094 L 254.84375 23.996094 L 254.84375 25.582031 L 253.261719 25.582031 L 253.261719 30.335938 L 254.84375 30.335938 L 254.84375 32.023438 L 256.421875 32.023438 L 256.421875 33.609375 L 258.109375 33.609375 L 258.109375 35.195312 L 259.691406 35.195312 L 259.691406 38.46875 L 261.269531 38.46875 L 261.269531 41.636719 L 262.851562 41.636719 L 262.851562 40.054688 L 264.433594 40.054688 Z M 264.433594 38.46875 "/>
<path style=" stroke:none;fill-rule:nonzero;fill:rgb(100%,100%,100%);fill-opacity:1;" d="M 262.851562 23.996094 L 264.433594 23.996094 L 264.433594 25.582031 L 262.851562 25.582031 Z M 262.851562 23.996094 "/>
<path style=" stroke:none;fill-rule:nonzero;fill:rgb(100%,100%,100%);fill-opacity:1;" d="M 261.269531 54.523438 L 258.109375 54.523438 L 258.109375 56.109375 L 262.851562 56.109375 L 262.851562 54.523438 Z M 261.269531 54.523438 "/>
<path style=" stroke:none;fill-rule:nonzero;fill:rgb(100%,100%,100%);fill-opacity:1;" d="M 259.691406 44.910156 L 261.269531 44.910156 L 261.269531 46.496094 L 259.691406 46.496094 Z M 259.691406 44.910156 "/>
<path style=" stroke:none;fill-rule:nonzero;fill:rgb(100%,100%,100%);fill-opacity:1;" d="M 261.269531 17.554688 L 262.851562 17.554688 L 262.851562 15.863281 L 258.109375 15.863281 L 258.109375 17.554688 Z M 261.269531 17.554688 "/>
<path style=" stroke:none;fill-rule:nonzero;fill:rgb(100%,100%,100%);fill-opacity:1;" d="M 258.109375 43.222656 L 258.109375 40.054688 L 256.421875 40.054688 L 256.421875 38.46875 L 254.84375 38.46875 L 254.84375 41.636719 L 251.679688 41.636719 L 251.679688 38.46875 L 249.996094 38.46875 L 249.996094 43.222656 L 251.679688 43.222656 L 251.679688 44.910156 L 259.691406 44.910156 L 259.691406 43.222656 Z M 258.109375 43.222656 "/>
<path style=" stroke:none;fill-rule:nonzero;fill:rgb(100%,100%,100%);fill-opacity:1;" d="M 259.691406 23.996094 L 262.851562 23.996094 L 262.851562 22.308594 L 256.421875 22.308594 L 256.421875 23.996094 Z M 259.691406 23.996094 "/>
<path style=" stroke:none;fill-rule:nonzero;fill:rgb(100%,100%,100%);fill-opacity:1;" d="M 256.421875 52.941406 L 254.84375 52.941406 L 254.84375 54.523438 L 258.109375 54.523438 L 258.109375 52.941406 Z M 256.421875 52.941406 "/>
<path style=" stroke:none;fill-rule:nonzero;fill:rgb(100%,100%,100%);fill-opacity:1;" d="M 258.109375 19.136719 L 258.109375 17.554688 L 254.84375 17.554688 L 254.84375 19.136719 Z M 258.109375 19.136719 "/>
<path style=" stroke:none;fill-rule:nonzero;fill:rgb(100%,100%,100%);fill-opacity:1;" d="M 253.261719 51.25 L 254.84375 51.25 L 254.84375 52.835938 L 253.261719 52.835938 Z M 253.261719 51.25 "/>
<path style=" stroke:none;fill-rule:nonzero;fill:rgb(100%,100%,100%);fill-opacity:1;" d="M 254.84375 38.46875 L 254.84375 36.777344 L 251.679688 36.777344 L 251.679688 38.46875 Z M 254.84375 38.46875 "/>
<path style=" stroke:none;fill-rule:nonzero;fill:rgb(100%,100%,100%);fill-opacity:1;" d="M 253.261719 19.136719 L 254.84375 19.136719 L 254.84375 20.722656 L 253.261719 20.722656 Z M 253.261719 19.136719 "/>
<path style=" stroke:none;fill-rule:nonzero;fill:rgb(100%,100%,100%);fill-opacity:1;" d="M 251.679688 49.664062 L 253.261719 49.664062 L 253.261719 51.25 L 251.679688 51.25 Z M 251.679688 49.664062 "/>
<path style=" stroke:none;fill-rule:nonzero;fill:rgb(100%,100%,100%);fill-opacity:1;" d="M 251.679688 20.722656 L 253.261719 20.722656 L 253.261719 22.308594 L 251.679688 22.308594 Z M 251.679688 20.722656 "/>
<path style=" stroke:none;fill-rule:nonzero;fill:rgb(100%,100%,100%);fill-opacity:1;" d="M 249.996094 48.082031 L 251.574219 48.082031 L 251.574219 49.664062 L 249.996094 49.664062 Z M 249.996094 48.082031 "/>
<path style=" stroke:none;fill-rule:nonzero;fill:rgb(100%,100%,100%);fill-opacity:1;" d="M 249.996094 22.308594 L 251.574219 22.308594 L 251.574219 23.890625 L 249.996094 23.890625 Z M 249.996094 22.308594 "/>
<path style=" stroke:none;fill-rule:nonzero;fill:rgb(100%,100%,100%);fill-opacity:1;" d="M 249.996094 44.910156 L 248.414062 44.910156 L 248.414062 48.082031 L 249.996094 48.082031 Z M 249.996094 44.910156 "/>
<path style=" stroke:none;fill-rule:nonzero;fill:rgb(100%,100%,100%);fill-opacity:1;" d="M 249.996094 25.582031 L 249.996094 23.996094 L 248.414062 23.996094 L 248.414062 27.167969 L 249.996094 27.167969 Z M 249.996094 25.582031 "/>
<path style=" stroke:none;fill-rule:nonzero;fill:rgb(100%,100%,100%);fill-opacity:1;" d="M 248.414062 41.636719 L 248.414062 40.054688 L 246.832031 40.054688 L 246.832031 44.910156 L 248.414062 44.910156 Z M 248.414062 41.636719 "/>
<path style=" stroke:none;fill-rule:nonzero;fill:rgb(100%,100%,100%);fill-opacity:1;" d="M 248.414062 30.335938 L 248.414062 27.167969 L 246.832031 27.167969 L 246.832031 32.023438 L 248.414062 32.023438 Z M 248.414062 30.335938 "/>
<path style=" stroke:none;fill-rule:nonzero;fill:rgb(100%,100%,100%);fill-opacity:1;" d="M 246.832031 36.777344 L 246.832031 32.023438 L 245.25 32.023438 L 245.25 40.054688 L 246.832031 40.054688 Z M 246.832031 36.777344 "/>
<path style=" stroke:none;fill-rule:nonzero;fill:rgb(100%,100%,100%);fill-opacity:1;" d="M 291.519531 64.347656 L 291.519531 77.445312 L 294.785156 77.445312 L 294.785156 64.347656 Z M 291.519531 64.347656 "/>
<path style=" stroke:none;fill-rule:nonzero;fill:rgb(100%,100%,100%);fill-opacity:1;" d="M 285.089844 77.445312 L 285.089844 64.347656 L 291.519531 64.347656 L 291.519531 61.074219 L 281.824219 61.074219 L 281.824219 64.347656 L 278.554688 64.347656 L 278.554688 77.445312 L 281.824219 77.445312 L 281.824219 80.722656 L 291.519531 80.722656 L 291.519531 77.445312 Z M 285.089844 77.445312 "/>
<path style=" stroke:none;fill-rule:nonzero;fill:rgb(100%,100%,100%);fill-opacity:1;" d="M 272.023438 64.347656 L 272.023438 74.171875 L 268.753906 74.171875 L 268.753906 70.898438 L 265.488281 70.898438 L 265.488281 61.074219 L 258.953125 61.074219 L 258.953125 77.445312 L 262.21875 77.445312 L 262.21875 80.722656 L 265.488281 80.722656 L 265.488281 77.445312 L 268.753906 77.445312 L 268.753906 80.722656 L 275.289062 80.722656 L 275.289062 61.074219 L 272.023438 61.074219 Z M 272.023438 64.347656 "/>
<path style=" stroke:none;fill-rule:nonzero;fill:rgb(100%,100%,100%);fill-opacity:1;" d="M 242.722656 61.074219 L 242.722656 74.171875 L 239.453125 74.171875 L 239.453125 77.445312 L 242.722656 77.445312 L 242.722656 80.722656 L 249.152344 80.722656 L 249.152344 61.074219 Z M 242.722656 61.074219 "/>
<path style=" stroke:none;fill-rule:nonzero;fill:rgb(100%,100%,100%);fill-opacity:1;" d="M 232.921875 41.53125 L 236.1875 41.53125 L 236.1875 44.804688 L 232.921875 44.804688 Z M 232.921875 41.53125 "/>
<path style=" stroke:none;fill-rule:nonzero;fill:rgb(100%,100%,100%);fill-opacity:1;" d="M 229.652344 61.074219 L 229.652344 74.171875 L 226.386719 74.171875 L 226.386719 61.074219 L 219.851562 61.074219 L 219.851562 74.171875 L 223.117188 74.171875 L 223.117188 77.445312 L 229.652344 77.445312 L 229.652344 80.722656 L 236.1875 80.722656 L 236.1875 61.074219 Z M 229.652344 61.074219 "/>
<path style=" stroke:none;fill-rule:nonzero;fill:rgb(100%,100%,100%);fill-opacity:1;" d="M 229.652344 38.257812 L 223.117188 38.257812 L 223.117188 41.53125 L 232.921875 41.53125 L 232.921875 38.257812 Z M 229.652344 38.257812 "/>
<path style=" stroke:none;fill-rule:nonzero;fill:rgb(100%,100%,100%);fill-opacity:1;" d="M 219.851562 44.804688 L 219.851562 48.082031 L 223.117188 48.082031 L 223.117188 51.355469 L 219.851562 51.355469 L 219.851562 54.628906 L 223.117188 54.628906 L 223.117188 57.90625 L 232.921875 57.90625 L 232.921875 54.628906 L 236.1875 54.628906 L 236.1875 48.082031 L 229.652344 48.082031 L 229.652344 44.804688 L 223.117188 44.804688 L 223.117188 41.53125 L 219.851562 41.53125 Z M 229.652344 54.628906 L 226.386719 54.628906 L 226.386719 51.355469 L 229.652344 51.355469 Z M 229.652344 54.628906 "/>
<path style=" stroke:none;fill-rule:nonzero;fill:rgb(100%,100%,100%);fill-opacity:1;" d="M 213.316406 51.355469 L 216.585938 51.355469 L 216.585938 54.628906 L 213.316406 54.628906 Z M 213.316406 51.355469 "/>
<path style=" stroke:none;fill-rule:nonzero;fill:rgb(100%,100%,100%);fill-opacity:1;" d="M 213.316406 44.804688 L 206.78125 44.804688 L 206.78125 41.53125 L 213.316406 41.53125 L 213.316406 38.257812 L 203.515625 38.257812 L 203.515625 41.53125 L 200.355469 41.53125 L 200.355469 54.628906 L 203.515625 54.628906 L 203.515625 57.800781 L 213.316406 57.800781 L 213.316406 54.628906 L 210.050781 54.628906 L 210.050781 51.355469 L 206.78125 51.355469 L 206.78125 48.082031 L 216.585938 48.082031 L 216.585938 41.53125 L 213.316406 41.53125 Z M 213.316406 44.804688 "/>
<path style=" stroke:none;fill-rule:nonzero;fill:rgb(100%,100%,100%);fill-opacity:1;" d="M 213.316406 61.074219 L 203.515625 61.074219 L 203.515625 64.347656 L 206.78125 64.347656 L 206.78125 67.621094 L 210.050781 67.621094 L 210.050781 70.898438 L 200.355469 70.898438 L 200.355469 77.445312 L 203.515625 77.445312 L 203.515625 74.171875 L 210.050781 74.171875 L 210.050781 77.445312 L 203.515625 77.445312 L 203.515625 80.722656 L 213.316406 80.722656 L 213.316406 77.445312 L 216.585938 77.445312 L 216.585938 64.347656 L 213.316406 64.347656 Z M 213.316406 61.074219 "/>
<path style=" stroke:none;fill-rule:nonzero;fill:rgb(100%,100%,100%);fill-opacity:1;" d="M 200.355469 64.347656 L 203.621094 64.347656 L 203.621094 67.621094 L 200.355469 67.621094 Z M 200.355469 64.347656 "/>
<path style=" stroke:none;fill-rule:nonzero;fill:rgb(100%,100%,100%);fill-opacity:1;" d="M 193.820312 38.257812 L 187.285156 38.257812 L 187.285156 57.800781 L 193.820312 57.800781 L 193.820312 44.804688 L 197.085938 44.804688 L 197.085938 41.53125 L 193.820312 41.53125 Z M 193.820312 38.257812 "/>
<path style=" stroke:none;fill-rule:nonzero;fill:rgb(100%,100%,100%);fill-opacity:1;" d="M 187.285156 64.347656 L 187.285156 70.898438 L 184.019531 70.898438 L 184.019531 61.074219 L 180.75 61.074219 L 180.75 77.445312 L 177.484375 77.445312 L 177.484375 80.722656 L 190.550781 80.722656 L 190.550781 61.074219 L 187.285156 61.074219 Z M 187.285156 64.347656 "/>
<path style=" stroke:none;fill-rule:nonzero;fill:rgb(100%,100%,100%);fill-opacity:1;" d="M 180.75 51.355469 L 184.019531 51.355469 L 184.019531 54.628906 L 180.75 54.628906 Z M 180.75 51.355469 "/>
<path style=" stroke:none;fill-rule:nonzero;fill:rgb(100%,100%,100%);fill-opacity:1;" d="M 177.484375 70.898438 L 177.484375 61.074219 L 174.214844 61.074219 L 174.214844 77.445312 L 177.484375 77.445312 Z M 177.484375 70.898438 "/>
<path style=" stroke:none;fill-rule:nonzero;fill:rgb(100%,100%,100%);fill-opacity:1;" d="M 174.214844 57.800781 L 180.75 57.800781 L 180.75 54.628906 L 177.484375 54.628906 L 177.484375 51.355469 L 174.214844 51.355469 L 174.214844 48.082031 L 184.019531 48.082031 L 184.019531 41.53125 L 180.75 41.53125 L 180.75 44.804688 L 174.214844 44.804688 L 174.214844 41.53125 L 180.75 41.53125 L 180.75 38.257812 L 170.949219 38.257812 L 170.949219 41.53125 L 167.683594 41.53125 L 167.683594 54.628906 L 170.949219 54.628906 L 170.949219 57.800781 Z M 174.214844 57.800781 "/>
<path style=" stroke:none;fill-rule:nonzero;fill:rgb(100%,100%,100%);fill-opacity:1;" d="M 167.683594 67.621094 L 167.683594 70.898438 L 170.949219 70.898438 L 170.949219 64.347656 L 167.683594 64.347656 Z M 167.683594 67.621094 "/>
<path style=" stroke:none;fill-rule:nonzero;fill:rgb(100%,100%,100%);fill-opacity:1;" d="M 161.148438 70.898438 L 161.148438 64.347656 L 167.683594 64.347656 L 167.683594 61.074219 L 157.984375 61.074219 L 157.984375 64.347656 L 154.71875 64.347656 L 154.71875 77.445312 L 157.984375 77.445312 L 157.984375 80.722656 L 167.683594 80.722656 L 167.683594 77.445312 L 161.148438 77.445312 L 161.148438 74.171875 L 167.683594 74.171875 L 167.683594 70.898438 Z M 161.148438 70.898438 "/>
<path style=" stroke:none;fill-rule:nonzero;fill:rgb(100%,100%,100%);fill-opacity:1;" d="M 164.414062 57.800781 L 164.414062 41.53125 L 161.148438 41.53125 L 161.148438 38.257812 L 157.984375 38.257812 L 157.984375 57.800781 Z M 164.414062 57.800781 "/>
<path style=" stroke:none;fill-rule:nonzero;fill:rgb(100%,100%,100%);fill-opacity:1;" d="M 154.71875 54.628906 L 154.71875 44.804688 L 151.449219 44.804688 L 151.449219 41.53125 L 144.917969 41.53125 L 144.917969 38.257812 L 138.382812 38.257812 L 138.382812 57.800781 L 144.917969 57.800781 L 144.917969 44.804688 L 148.183594 44.804688 L 148.183594 57.800781 L 154.71875 57.800781 Z M 154.71875 54.628906 "/>
<path style=" stroke:none;fill-rule:nonzero;fill:rgb(100%,100%,100%);fill-opacity:1;" d="M 144.917969 61.074219 L 144.917969 74.171875 L 141.648438 74.171875 L 141.648438 77.445312 L 144.917969 77.445312 L 144.917969 80.722656 L 151.449219 80.722656 L 151.449219 61.074219 Z M 144.917969 61.074219 "/>
<path style=" stroke:none;fill-rule:nonzero;fill:rgb(100%,100%,100%);fill-opacity:1;" d="M 131.847656 38.257812 L 125.3125 38.257812 L 125.3125 57.800781 L 131.847656 57.800781 L 131.847656 44.804688 L 135.113281 44.804688 L 135.113281 41.53125 L 131.847656 41.53125 Z M 131.847656 38.257812 "/>
<path style=" stroke:none;fill-rule:nonzero;fill:rgb(100%,100%,100%);fill-opacity:1;" d="M 118.777344 38.257812 L 109.082031 38.257812 L 109.082031 41.53125 L 115.617188 41.53125 L 115.617188 44.804688 L 109.082031 44.804688 L 109.082031 48.082031 L 115.617188 48.082031 L 115.617188 54.628906 L 109.082031 54.628906 L 109.082031 57.800781 L 118.777344 57.800781 L 118.777344 54.628906 L 122.046875 54.628906 L 122.046875 41.53125 L 118.777344 41.53125 Z M 118.777344 38.257812 "/>
<path style=" stroke:none;fill-rule:nonzero;fill:rgb(100%,100%,100%);fill-opacity:1;" d="M 109.082031 48.082031 L 105.816406 48.082031 L 105.816406 54.628906 L 109.082031 54.628906 Z M 109.082031 48.082031 "/>
</g>
</svg>
