{
  "accessors": [
    {
      "bufferView": 2,
      "componentType": 5126,
      "count": 108,
      "max": [
        0.09000001102685928,
        0.23499999940395355,
        0.4300000071525574
      ],
      "min": [
        -0.09000001102685928,
        -0.23499999940395355,
        0.0
      ],
      "type": "VEC3"
    },
    {
      "bufferView": 2,
      "byteOffset": 1296,
      "componentType": 5126,
      "count": 108,
      "max": [
        1.0,
        1.0,
        1.0
      ],
      "min": [
        -1.0,
        -1.0,
        -1.0
      ],
      "type": "VEC3"
    },
    {
      "bufferView": 1,
      "componentType": 5126,
      "count": 108,
      "max": [
        0.8188436627388,
        1.000045895576477
      ],
      "min": [
        0.0,
        0.0
      ],
      "type": "VEC2"
    },
    {
      "bufferView": 0,
      "componentType": 5125,
      "count": 204,
      "type": "SCALAR"
    },
    {
      "bufferView": 2,
      "byteOffset": 2592,
      "componentType": 5126,
      "count": 2190,
      "max": [
        0.010000002570450306,
        0.05066647380590439,
        0.021006213501095772
      ],
      "min": [
        -0.010000002570450306,
        -0.05066647380590439,
        -0.0012388286413624883
      ],
      "type": "VEC3"
    },
    {
      "bufferView": 2,
      "byteOffset": 28872,
      "componentType": 5126,
      "count": 2190,
      "max": [
        1.0,
        0.8258941769599915,
        1.0
      ],
      "min": [
        -1.0,
        -0.825893223285675,
        -1.0
      ],
      "type": "VEC3"
    },
    {
      "bufferView": 1,
      "byteOffset": 864,
      "componentType": 5126,
      "count": 2190,
      "max": [
        1.0000001192092896,
        1.0000001192092896
      ],
      "min": [
        0.0,
        0.0
      ],
      "type": "VEC2"
    },
    {
      "bufferView": 0,
      "byteOffset": 816,
      "componentType": 5125,
      "count": 10176,
      "type": "SCALAR"
    }
  ],
  "asset": {
    "extras": {
      "author": "trainhard (https://sketchfab.com/trainhard)",
      "license": "CC-BY-4.0 (http://creativecommons.org/licenses/by/4.0/)",
      "source": "https://sketchfab.com/3d-models/ps5-box-accurate-scale-492525c46eae4fc9a73ab69c627b6e12",
      "title": "PS5 Box - Accurate scale"
    },
    "generator": "Sketchfab-12.68.0",
    "version": "2.0"
  },
  "bufferViews": [
    {
      "buffer": 0,
      "byteLength": 41520,
      "name": "floatBufferViews",
      "target": 34963
    },
    {
      "buffer": 0,
      "byteLength": 18384,
      "byteOffset": 41520,
      "byteStride": 8,
      "name": "floatBufferViews",
      "target": 34962
    },
    {
      "buffer": 0,
      "byteLength": 55152,
      "byteOffset": 59904,
      "byteStride": 12,
      "name": "floatBufferViews",
      "target": 34962
    }
  ],
  "buffers": [
    {
      "byteLength": 115056,
      "uri": "scene.bin"
    }
  ],
  "extensionsUsed": [
    "KHR_materials_clearcoat"
  ],
  "images": [
    {
      "uri": "textures/Material.005_baseColor.jpeg"
    },
    {
      "uri": "textures/Material.005_clearcoat.png"
    }
  ],
  "materials": [
    {
      "doubleSided": true,
      "extensions": {
        "KHR_materials_clearcoat": {
          "clearcoatFactor": 1.0,
          "clearcoatRoughnessFactor": 0.04,
          "clearcoatTexture": {
            "index": 1
          }
        }
      },
      "name": "Material.005",
      "pbrMetallicRoughness": {
        "baseColorTexture": {
          "index": 0
        },
        "metallicFactor": 0.0,
        "roughnessFactor": 0.8211145618000169
      }
    },
    {
      "doubleSided": true,
      "name": "Material.003",
      "pbrMetallicRoughness": {
        "metallicFactor": 0.0,
        "roughnessFactor": 0.0
      }
    }
  ],
  "meshes": [
    {
      "name": "Box.001_Material.005_0",
      "primitives": [
        {
          "attributes": {
            "NORMAL": 1,
            "POSITION": 0,
            "TEXCOORD_0": 2
          },
          "indices": 3,
          "material": 0,
          "mode": 4
        }
      ]
    },
    {
      "name": "Handle.001_Material.003_0",
      "primitives": [
        {
          "attributes": {
            "NORMAL": 5,
            "POSITION": 4,
            "TEXCOORD_0": 6
          },
          "indices": 7,
          "material": 1,
          "mode": 4
        }
      ]
    }
  ],
  "nodes": [
    {
      "children": [
        1
      ],
      "matrix": [
        1.0,
        0.0,
        0.0,
        0.0,
        0.0,
        2.220446049250313e-16,
        -1.0,
        0.0,
        0.0,
        1.0,
        2.220446049250313e-16,
        0.0,
        0.0,
        0.0,
        0.0,
        1.0
      ],
      "name": "Sketchfab_model"
    },
    {
      "children": [
        2
      ],
      "matrix": [
        0.009999999776482582,
        0.0,
        0.0,
        0.0,
        0.0,
        0.0,
        0.009999999776482582,
        0.0,
        0.0,
        -0.009999999776482582,
        0.0,
        0.0,
        0.0,
        0.0,
        0.0,
        1.0
      ],
      "name": "055125391edc4959bca1c2f43e8df120.fbx"
    },
    {
      "children": [
        3,
        5
      ],
      "name": "RootNode"
    },
    {
      "children": [
        4
      ],
      "matrix": [
        4.371139006309477e-06,
        1.1102230246251565e-14,
        99.99999999999991,
        0.0,
        99.99999999999982,
        -4.371139006309477e-06,
        -4.371139011860592e-06,
        0.0,
        4.371139011860592e-06,
        99.99999999999991,
        -1.9984014443252818e-13,
        0.0,
        0.0,
        1.4901161193847656e-06,
        0.0,
        1.0
      ],
      "name": "Box.001"
    },
    {
      "mesh": 0,
      "name": "Box.001_Material.005_0"
    },
    {
      "children": [
        6
      ],
      "matrix": [
        4.371139006309477e-06,
        1.1102230246251565e-14,
        99.99999999999991,
        0.0,
        99.99999999999982,
        -4.371139006309477e-06,
        -4.371139011860592e-06,
        0.0,
        4.371139011860592e-06,
        99.99999999999991,
        -1.9984014443252818e-13,
        0.0,
        0.0,
        42.79999923706055,
        0.0,
        1.0
      ],
      "name": "Handle.001"
    },
    {
      "mesh": 1,
      "name": "Handle.001_Material.003_0"
    }
  ],
  "samplers": [
    {
      "magFilter": 9729,
      "minFilter": 9987,
      "wrapS": 10497,
      "wrapT": 10497
    }
  ],
  "scene": 0,
  "scenes": [
    {
      "name": "Sketchfab_Scene",
      "nodes": [
        0
      ]
    }
  ],
  "textures": [
    {
      "sampler": 0,
      "source": 0
    },
    {
      "sampler": 0,
      "source": 1
    }
  ]
}
