<?xml version="1.0" standalone="no"?>
<!DOCTYPE svg PUBLIC "-//W3C//DTD SVG 20010904//EN"
 "http://www.w3.org/TR/2001/REC-SVG-20010904/DTD/svg10.dtd">
<svg version="1.0" xmlns="http://www.w3.org/2000/svg"
 width="1748.000000pt" height="1748.000000pt" viewBox="0 0 1748.000000 1748.000000"
 preserveAspectRatio="xMidYMid meet">
<metadata>
Created by potrace 1.14, written by Peter Selinger 2001-2017
</metadata>
<g transform="translate(0.000000,1748.000000) scale(0.100000,-0.100000)"
fill="#000000" stroke="none">
<path d="M10842 17288 c0 -106 -1 -200 -1 -209 -1 -15 -39 -16 -409 -16 -225
0 -413 -2 -418 -6 -5 -3 -9 -92 -9 -210 l0 -204 -405 -1 c-223 0 -412 -1 -420
-1 -13 -1 -15 -29 -15 -206 0 -131 -3 -206 -10 -208 -5 -2 -99 -3 -207 -2
l-198 0 -1 -35 c0 -19 0 -302 -1 -627 l0 -593 -629 0 -629 0 -1 -22 c-3 -84 0
-391 5 -395 2 -3 286 -5 629 -5 l625 0 0 -208 0 -207 -206 -1 c-113 -1 -207
-4 -210 -6 -3 -4 -6 -863 -3 -1181 l1 -70 208 0 207 0 2 -207 2 -208 -37 -1
c-20 0 -115 -1 -209 -1 l-173 0 0 -209 0 -209 -210 0 -210 0 -1 -22 c0 -13 -1
-201 -2 -418 l-2 -395 -203 -1 c-111 -1 -205 -4 -209 -7 -3 -4 -6 -96 -6 -206
1 -141 -3 -201 -11 -203 -6 -3 -100 -4 -208 -3 l-198 0 0 -206 c0 -157 -3
-208 -12 -211 -7 -2 -102 -4 -210 -3 l-198 0 0 -417 0 -418 -210 0 -210 0 0
-210 0 -210 -417 -2 -418 -3 -2 -135 c-1 -74 -2 -167 -2 -206 l-1 -72 -418 0
-417 0 -2 -193 c-1 -107 -2 -202 -3 -212 0 -17 -11 -18 -132 -17 -73 1 -167 1
-208 1 l-75 -1 0 -208 0 -207 -210 0 -210 0 0 -207 0 -208 -25 -1 c-14 0 -108
-1 -210 -2 l-185 -2 0 -207 0 -208 -30 -1 c-16 0 -108 -1 -203 -1 -149 0 -174
-3 -180 -17 -4 -9 -7 -103 -6 -208 l1 -193 -209 0 c-159 0 -208 -3 -209 -12
-1 -16 -1 -1231 0 -1239 1 -3 95 -6 211 -6 l210 0 0 209 0 208 209 0 208 0 1
188 c0 103 1 197 1 208 1 21 4 22 194 22 105 0 199 1 208 1 15 1 16 24 16 209
l-1 207 195 2 c107 0 201 2 210 2 14 1 16 26 16 200 0 109 3 203 6 208 3 4
190 8 416 8 271 0 411 3 412 10 1 5 3 96 4 200 1 105 3 195 4 200 1 7 147 10
419 10 l417 0 0 208 0 207 50 1 c27 0 215 1 418 1 l367 0 1 57 c0 31 0 125 0
209 l-1 152 420 0 420 0 0 210 0 210 210 0 210 0 0 209 0 209 168 0 c92 0 186
1 210 1 l42 1 0 210 0 210 178 -1 c97 0 192 0 209 0 l33 1 2 207 3 208 205 0
205 0 2 185 c1 102 2 196 2 210 l1 25 192 -2 c106 -1 200 -2 208 -2 13 -1 15
-29 15 -193 -1 -106 1 -200 3 -208 3 -13 32 -15 200 -15 108 1 202 0 207 -2 7
-2 10 -78 10 -208 0 -133 3 -205 10 -206 5 0 195 0 420 -1 l410 0 -1 -209 -1
-209 46 -1 c25 0 214 0 419 0 l372 0 1 -27 c0 -15 1 -109 2 -209 l0 -183 209
0 c191 0 208 -1 209 -17 0 -10 1 -105 1 -210 l1 -193 208 0 209 0 0 -418 0
-417 210 0 210 0 0 -416 c0 -325 3 -418 13 -421 6 -2 101 -3 210 -2 l197 1 0
-209 c0 -114 3 -208 8 -209 4 0 97 -1 207 -2 l200 -2 2 -180 c1 -99 2 -192 2
-207 l1 -28 210 0 210 0 2 208 3 207 185 2 c102 1 195 2 208 2 l22 1 0 210 0
210 -210 0 -210 0 0 209 0 208 -197 1 c-109 0 -204 1 -210 1 -10 1 -13 133
-13 626 0 588 -1 625 -17 626 -10 1 -104 1 -209 1 l-191 0 -1 617 c0 339 -1
622 -1 628 -1 10 -53 13 -208 15 l-208 3 -2 180 c-1 99 -2 192 -2 207 l-1 27
-172 0 c-95 0 -189 0 -209 0 l-36 1 1 205 c1 130 -3 205 -9 206 -5 1 -95 3
-200 4 -104 1 -195 3 -200 4 -7 1 -10 72 -10 206 0 133 -3 205 -10 206 -5 1
-188 3 -405 4 -217 1 -402 3 -410 4 -13 1 -15 29 -15 206 l0 205 -25 1 c-14 0
-108 1 -210 1 l-185 1 0 209 1 208 -46 1 c-25 0 -119 1 -208 2 l-164 2 0 325
c1 179 1 366 1 415 l1 90 408 -1 c224 0 412 3 417 7 7 5 10 152 10 418 l0 411
45 1 c25 0 119 1 210 2 l165 2 0 628 0 627 -207 0 c-115 0 -209 3 -209 8 -4
24 -3 815 1 821 3 4 97 7 210 6 l205 0 0 202 c0 111 3 205 8 209 4 4 192 8
419 8 l412 1 -1 208 c0 184 1 207 16 208 9 0 197 1 419 1 360 1 402 3 403 17
0 9 1 103 1 209 l1 192 209 0 208 0 0 210 0 210 210 0 210 0 0 210 0 210 -420
0 -420 0 0 -209 0 -208 -835 0 c-459 0 -835 3 -836 6 -1 3 -2 96 -3 206 l-1
200 -421 3 -421 2 -1 -192z"/>
<path d="M14619 6981 c-3 -152 -1 -372 4 -378 4 -3 98 -6 209 -6 l203 -1 3
211 2 211 -210 0 -210 -1 -1 -36z"/>
<path d="M5683 5112 c-22 -3 -22 -6 -21 -152 1 -82 -2 -153 -6 -157 -4 -4 -78
-8 -163 -8 l-156 0 0 -320 0 -321 -154 1 c-84 0 -158 -2 -162 -5 -5 -3 -8
-291 -7 -640 l1 -635 323 0 c177 0 323 2 323 5 1 3 3 73 4 155 1 83 3 152 4
155 0 3 72 5 159 5 l157 -1 2 -109 c1 -61 2 -133 2 -160 l1 -50 638 0 c350 0
642 4 649 8 9 5 12 52 11 161 l-1 153 -146 1 c-80 0 -153 1 -162 1 -14 1 -16
48 -15 464 1 254 -2 469 -5 477 -6 13 -32 15 -159 15 -127 0 -153 2 -159 15
-3 8 -6 146 -5 305 1 160 0 297 -2 305 -3 13 -27 15 -151 15 -82 -1 -154 1
-160 3 -9 3 -13 39 -12 136 0 72 0 142 0 156 l-1 25 -302 0 c-167 0 -313 -1
-325 -3z m298 -321 c4 -1 6 -216 5 -478 l-1 -478 -160 0 -160 0 0 477 0 477
30 3 c23 2 253 1 286 -1z"/>
<path d="M8283 5112 c-23 -3 -23 -5 -23 -162 l0 -159 488 1 489 1 0 158 0 159
-36 1 c-152 2 -901 3 -918 1z"/>
<path d="M10558 5112 l-26 -3 0 -132 c0 -73 -1 -143 -1 -157 l-1 -26 -160 1
-160 1 -1 -56 c0 -30 -1 -462 -1 -960 l0 -905 326 0 326 0 0 477 c0 448 1 478
18 479 24 0 274 0 292 0 13 -1 15 -60 13 -479 l-1 -477 486 0 487 0 0 480 0
480 -150 1 c-82 1 -155 2 -160 3 -7 1 -10 57 -10 152 0 92 -4 153 -10 157 -5
4 -224 7 -485 7 l-475 0 -3 158 -3 157 28 1 c37 0 913 0 933 0 13 -1 15 -24
12 -160 l-3 -160 165 1 166 1 0 321 0 321 -162 0 -163 0 0 158 c0 134 -2 157
-15 158 -60 2 -1241 3 -1262 1z"/>
<path d="M8260 3675 l0 -800 488 0 487 0 2 785 c0 432 -1 792 -3 800 -3 13
-65 15 -489 15 l-485 0 0 -800z"/>
<path d="M2419 2236 c-1 -1 -2 -69 -3 -153 0 -83 -4 -155 -8 -159 -5 -4 -151
-8 -325 -8 l-318 -1 -1 -790 c0 -434 1 -794 3 -800 2 -6 64 -10 163 -9 l160 1
0 -158 0 -159 650 0 650 0 0 160 0 160 -160 0 c-121 0 -160 3 -161 13 0 6 -1
78 -1 160 l0 147 -324 0 c-178 0 -324 3 -325 8 0 10 0 924 0 938 1 8 90 11
304 12 166 0 312 1 324 1 22 1 23 4 22 104 0 56 0 127 0 157 l1 55 158 0 157
0 1 -153 c1 -84 4 -156 8 -159 4 -5 247 -8 306 -4 13 1 15 25 15 159 l0 159
-150 1 c-82 0 -156 1 -162 1 -9 1 -13 43 -15 159 l-3 157 -482 1 c-266 1 -484
1 -484 0z"/>
<path d="M4362 2091 c0 -80 0 -153 -1 -161 -1 -13 -26 -15 -163 -15 l-161 0
-1 -793 c-1 -470 3 -796 8 -800 5 -3 79 -6 164 -6 l155 -1 0 -158 0 -157 651
2 651 3 0 155 0 155 163 0 162 0 -2 800 -3 800 -153 1 c-84 1 -156 4 -160 8
-4 4 -7 76 -7 159 l0 152 -651 1 -651 1 -1 -146z m643 -183 c6 -5 10 -1277 6
-1550 l-1 -38 -160 0 -160 0 0 793 c0 437 2 796 4 798 8 7 304 4 311 -3z"/>
<path d="M6310 1119 l0 -1119 163 0 164 0 0 317 -1 318 162 1 162 1 0 -159 c0
-87 3 -158 8 -159 4 0 77 -1 162 -2 l155 -2 0 -157 0 -158 651 0 652 0 -1
1118 -2 1117 -487 1 -488 1 0 -478 0 -479 -160 0 -160 0 -1 48 c0 26 -1 98 -1
160 l0 112 -163 0 -162 0 -1 143 c0 78 0 149 -1 158 -1 14 -21 16 -157 15
-130 -1 -157 2 -163 14 -3 8 -6 81 -5 161 l1 145 -164 1 -163 0 0 -1118z"/>
<path d="M9239 2236 c-1 -1 -2 -73 -3 -160 l-1 -160 -163 1 -162 0 0 -958 0
-959 325 0 325 0 0 478 0 479 160 0 c139 0 160 -2 161 -16 0 -9 1 -224 1 -478
l1 -463 489 0 488 0 0 480 0 480 -162 2 -163 3 0 155 0 155 -487 3 -488 2 0
158 0 159 485 0 c436 0 485 -2 486 -16 0 -9 1 -80 1 -158 l2 -143 25 -1 c33
-1 272 -1 289 0 9 1 12 72 12 320 l0 318 -137 1 c-76 0 -149 1 -163 1 l-25 1
0 158 0 159 -647 0 c-357 0 -649 -1 -649 -1z"/>
<path d="M11836 2231 c-2 -3 -4 -76 -5 -161 l-2 -156 153 1 c84 1 158 0 164
-2 7 -3 11 -148 11 -478 l0 -475 -161 0 -161 0 0 471 c0 303 -4 473 -10 478
-5 5 -79 8 -162 8 -149 0 -153 0 -154 -21 0 -12 0 -155 0 -318 l-1 -298 -163
0 -162 0 0 -640 0 -640 164 0 163 0 0 158 0 159 323 0 324 0 0 -146 c1 -80 2
-152 2 -158 1 -10 138 -13 650 -13 l649 0 0 160 -1 160 -161 2 -161 3 -2 440
c-1 242 -2 457 -2 478 l-1 37 -160 0 -160 0 0 315 0 315 -22 4 c-13 3 -79 5
-148 4 -69 0 -132 1 -141 1 -14 1 -16 21 -15 156 1 148 0 156 -19 160 -32 6
-625 2 -629 -4z"/>
<path d="M13780 1118 l0 -1118 813 2 812 3 0 156 0 156 155 0 155 -1 3 642 2
641 -157 3 -158 3 0 155 0 155 -145 2 c-80 0 -152 2 -161 2 -14 1 -16 21 -16
159 l0 157 -651 1 -652 1 0 -1119z m1300 1 l0 -479 -162 -2 -163 -3 0 -155 0
-155 -161 -3 -162 -2 1 638 0 639 323 0 324 0 0 -478z"/>
<path d="M3389 598 c-3 -107 0 -271 5 -275 5 -5 251 -8 306 -4 13 1 15 25 15
161 l0 160 -162 0 -163 0 -1 -42z"/>
</g>
</svg>
